<svg width="403" height="451" viewBox="0 0 403 451" fill="none" xmlns="http://www.w3.org/2000/svg">
<rect x="16.3108" y="222.662" width="25.4137" height="250.11" transform="rotate(-34.4695 16.3108 222.662)" fill="#E3D6C5"/>
<rect x="204.929" y="23.5386" width="25.4137" height="273.289" transform="rotate(44.9766 204.929 23.5386)" fill="#E3D6C5"/>
<rect x="196.095" width="111.791" height="59.2627" rx="29.6313" transform="rotate(44.9766 196.095 0)" fill="#4E1700"/>
<path d="M70.8801 451C70.8801 421.804 94.5483 398.136 123.744 398.136H191.956C221.152 398.136 244.821 421.804 244.821 451V451H70.8801V451Z" fill="#4E1700"/>
<circle cx="29.9532" cy="216.806" r="28.9901" fill="#4E1700"/>
<path d="M341.325 74.568C325.077 58.3205 303.596 48.6375 281.607 47.6491C259.618 46.6607 238.923 54.4478 224.073 69.2975C209.223 84.1471 201.436 104.843 202.425 126.832C203.413 148.821 213.096 170.302 229.343 186.549L285.334 130.559L341.325 74.568Z" fill="#4E1700"/>
<path d="M266.308 150.338C271.856 155.886 279.191 159.192 286.699 159.53C294.208 159.867 301.274 157.208 306.345 152.138C311.416 147.067 314.075 140 313.737 132.492C313.4 124.983 310.093 117.648 304.545 112.1L285.427 131.219L266.308 150.338Z" fill="#E3D6C5"/>
<rect x="198.18" y="40.0231" width="25.011" height="3.97903" rx="1.98951" transform="rotate(44.9766 198.18 40.0231)" fill="#E3D6C5"/>
<rect x="208.98" y="29.2229" width="25.011" height="3.97903" rx="1.98951" transform="rotate(44.9766 208.98 29.2229)" fill="#E3D6C5"/>
<rect x="187.379" y="50.8235" width="25.011" height="3.97903" rx="1.98951" transform="rotate(44.9766 187.379 50.8235)" fill="#E3D6C5"/>
</svg>
