<svg width="16" height="16" viewBox="0 0 16 16" fill="none" xmlns="http://www.w3.org/2000/svg">
<path d="M6.96999 0.470011C7.11061 0.329561 7.30124 0.250671 7.49999 0.250671C7.69874 0.250671 7.88936 0.329561 8.02999 0.470011L9.77999 2.22001C9.92044 2.36064 9.99933 2.55126 9.99933 2.75001C9.99933 2.94876 9.92044 3.13939 9.77999 3.28001L8.02999 5.03001C7.88781 5.16249 7.69976 5.23461 7.50546 5.23119C7.31116 5.22776 7.12578 5.14905 6.98836 5.01163C6.85095 4.87422 6.77224 4.68884 6.76881 4.49453C6.76538 4.30023 6.83751 4.11219 6.96999 3.97001L7.39999 3.54001C6.53407 3.65641 5.72076 4.02236 5.05933 4.59321C4.39789 5.16407 3.91695 5.91512 3.67518 6.75471C3.43342 7.59431 3.4413 8.48612 3.69786 9.32131C3.95442 10.1565 4.44857 10.8989 5.11999 11.458C5.27275 11.5854 5.36863 11.7684 5.38654 11.9665C5.40445 12.1646 5.34292 12.3617 5.21549 12.5145C5.08805 12.6673 4.90515 12.7632 4.70701 12.7811C4.50888 12.799 4.31175 12.7374 4.15899 12.61C3.24669 11.85 2.58038 10.8365 2.24443 9.69761C1.90848 8.55876 1.91799 7.34583 2.27175 6.21238C2.62551 5.07893 3.30762 4.07593 4.23172 3.33035C5.15582 2.58477 6.28037 2.13014 7.46299 2.02401L6.96999 1.53001C6.82954 1.38939 6.75065 1.19876 6.75065 1.00001C6.75065 0.801261 6.82954 0.610637 6.96999 0.470011V0.470011ZM10.785 3.48601C10.9123 3.3333 11.0951 3.2374 11.2931 3.2194C11.4911 3.20139 11.6882 3.26276 11.841 3.39001C12.7533 4.14999 13.4196 5.16356 13.7555 6.30241C14.0915 7.44127 14.082 8.65419 13.7282 9.78764C13.3745 10.9211 12.6924 11.9241 11.7682 12.6697C10.8441 13.4153 9.71961 13.8699 8.53699 13.976L9.02999 14.47C9.10367 14.5387 9.16277 14.6215 9.20377 14.7135C9.24476 14.8055 9.2668 14.9048 9.26858 15.0055C9.27035 15.1062 9.25183 15.2062 9.21411 15.2996C9.17639 15.393 9.12024 15.4778 9.04902 15.549C8.9778 15.6203 8.89297 15.6764 8.79958 15.7141C8.7062 15.7519 8.60617 15.7704 8.50546 15.7686C8.40476 15.7668 8.30545 15.7448 8.21345 15.7038C8.12145 15.6628 8.03865 15.6037 7.96999 15.53L6.21999 13.78C6.07954 13.6394 6.00065 13.4488 6.00065 13.25C6.00065 13.0513 6.07954 12.8606 6.21999 12.72L7.96999 10.97C8.11216 10.8375 8.30021 10.7654 8.49451 10.7688C8.68881 10.7723 8.87419 10.851 9.01161 10.9884C9.14902 11.1258 9.22773 11.3112 9.23116 11.5055C9.23459 11.6998 9.16247 11.8878 9.02999 12.03L8.59999 12.46C9.46591 12.3436 10.2792 11.9777 10.9406 11.4068C11.6021 10.836 12.083 10.0849 12.3248 9.24531C12.5665 8.40572 12.5587 7.5139 12.3021 6.67871C12.0455 5.84352 11.5514 5.10109 10.88 4.54201C10.7274 4.41453 10.6317 4.23169 10.6139 4.03368C10.5961 3.83566 10.6576 3.63867 10.785 3.48601V3.48601Z" fill="#4E1700"/>
</svg>
