<svg width="565" height="565" viewBox="0 0 565 565" fill="none" xmlns="http://www.w3.org/2000/svg">
<circle cx="282.5" cy="282.5" r="282.5" fill="#E3D6C5"/>
<g filter="url(#filter0_d_175:18)">
<path d="M231.156 351.786C228.019 354.105 225.223 356.901 222.768 360.174C220.177 363.448 217.994 366.994 216.221 370.813C214.448 374.632 213.084 378.655 212.129 382.884C211.175 387.112 210.697 391.408 210.697 395.773C210.697 402.32 211.857 408.798 214.175 415.209C216.358 421.756 219.972 427.621 225.019 432.804C229.929 438.123 236.339 442.419 244.25 445.693C252.161 448.966 261.777 450.603 273.097 450.603C285.645 450.603 297.512 448.557 308.696 444.465C319.88 440.373 329.7 434.849 338.157 427.893C346.477 420.937 353.092 412.89 358.002 403.752C362.912 394.613 365.367 385.066 365.367 375.109C365.367 364.607 362.912 355.264 358.002 347.08C352.955 339.033 346.409 331.668 338.361 324.985C330.178 318.438 320.903 312.368 310.537 306.776C300.171 301.184 289.601 295.66 278.826 290.204C268.051 284.749 257.48 279.02 247.114 273.019C236.748 267.154 227.542 260.539 219.495 253.174C211.311 245.808 204.764 237.557 199.854 228.418C194.807 219.28 192.284 208.709 192.284 196.707C192.284 185.25 195.012 174.27 200.468 163.768C205.924 153.266 213.425 143.923 222.973 135.739C232.52 127.692 243.773 121.281 256.73 116.508C269.551 111.598 283.395 109.142 298.262 109.142C314.902 109.142 328.677 110.984 339.589 114.666C350.364 118.213 358.957 122.714 365.367 128.169C371.641 133.625 376.006 139.49 378.461 145.764C380.916 152.175 382.144 158.108 382.144 163.563C382.144 170.247 381.121 176.248 379.075 181.567C376.892 187.023 374.028 191.865 370.482 196.093C366.936 200.458 362.98 204.209 358.616 207.346C354.115 210.619 349.546 213.347 344.908 215.529C340.134 217.848 335.565 219.689 331.201 221.053C326.7 222.553 322.676 223.645 319.13 224.327L317.084 213.892C318.721 213.347 321.721 211.983 326.086 209.801C330.314 207.755 334.747 204.686 339.384 200.594C344.022 196.639 348.113 191.66 351.66 185.659C355.206 179.658 356.979 172.565 356.979 164.382C356.979 158.79 355.82 153.334 353.501 148.015C351.046 142.695 347.432 137.921 342.658 133.693C337.884 129.465 332.019 126.055 325.063 123.464C318.107 120.872 309.992 119.577 300.717 119.577C289.533 119.577 279.78 120.599 271.46 122.645C263.004 124.828 255.775 127.624 249.774 131.034C243.636 134.443 238.658 138.331 234.839 142.695C230.883 147.196 227.815 151.834 225.632 156.607C223.314 161.381 221.745 166.087 220.927 170.724C219.972 175.498 219.495 179.794 219.495 183.613C219.495 193.979 221.882 203.049 226.655 210.824C231.429 218.734 237.771 225.759 245.682 231.896C253.457 238.17 262.322 243.831 272.279 248.877C282.236 254.06 292.465 259.175 302.967 264.222C313.333 269.268 323.494 274.519 333.451 279.975C343.408 285.431 352.342 291.637 360.252 298.593C368.027 305.549 374.301 313.46 379.075 322.325C383.848 331.327 386.235 341.829 386.235 353.832C386.235 369.926 382.894 384.657 376.21 398.023C369.527 411.526 360.525 423.051 349.205 432.599C337.884 442.283 324.79 449.785 309.923 455.104C294.92 460.423 279.167 463.083 262.663 463.083C248.615 463.083 236.612 461.446 226.655 458.173C216.699 454.899 208.583 450.603 202.309 445.284C195.899 439.964 191.261 433.895 188.397 427.075C185.396 420.255 183.896 413.299 183.896 406.207C183.896 397.751 185.396 390.044 188.397 383.088C191.261 376.132 194.807 369.926 199.036 364.471C203.127 359.151 207.56 354.65 212.334 350.968C217.108 347.421 221.336 344.898 225.019 343.398L231.156 351.786Z" fill="#4E1700"/>
<path d="M231.156 351.786L238.289 361.436C243.6 357.51 244.741 350.03 240.841 344.7L231.156 351.786ZM222.768 360.174L232.177 367.623C232.242 367.541 232.305 367.458 232.368 367.374L222.768 360.174ZM214.175 415.209L225.559 411.414C225.527 411.318 225.494 411.222 225.46 411.127L214.175 415.209ZM225.019 432.804L233.836 424.664C233.764 424.586 233.691 424.509 233.616 424.432L225.019 432.804ZM338.157 427.893L345.78 437.161C345.805 437.141 345.829 437.12 345.854 437.1L338.157 427.893ZM358.002 347.08L368.292 340.906C368.251 340.839 368.21 340.772 368.168 340.705L358.002 347.08ZM338.361 324.985L346.028 315.753C345.972 315.706 345.915 315.66 345.858 315.614L338.361 324.985ZM247.114 273.019L253.127 262.634C253.092 262.614 253.058 262.594 253.023 262.575L247.114 273.019ZM219.495 253.174L227.597 244.322C227.572 244.299 227.547 244.277 227.522 244.254L219.495 253.174ZM199.854 228.418L210.425 222.739C210.403 222.698 210.381 222.658 210.359 222.617L199.854 228.418ZM200.468 163.768L211.117 169.3L200.468 163.768ZM222.973 135.739L215.239 126.564C215.214 126.585 215.188 126.606 215.163 126.628L222.973 135.739ZM256.73 116.508L260.878 127.768C260.926 127.75 260.974 127.732 261.022 127.714L256.73 116.508ZM339.589 114.666L335.752 126.036C335.78 126.046 335.809 126.055 335.837 126.065L339.589 114.666ZM365.367 128.169L373.241 119.114C373.209 119.086 373.177 119.058 373.145 119.031L365.367 128.169ZM378.461 145.764L389.667 141.472C389.657 141.445 389.646 141.418 389.636 141.391L378.461 145.764ZM379.075 181.567L390.216 186.024C390.236 185.974 390.256 185.925 390.275 185.875L379.075 181.567ZM370.482 196.093L361.288 188.382C361.248 188.43 361.208 188.478 361.169 188.526L370.482 196.093ZM358.616 207.346L351.612 197.601C351.594 197.614 351.576 197.628 351.558 197.641L358.616 207.346ZM344.908 215.529L339.799 204.671C339.754 204.692 339.71 204.714 339.665 204.735L344.908 215.529ZM331.201 221.053L327.621 209.599C327.549 209.622 327.478 209.645 327.406 209.669L331.201 221.053ZM319.13 224.327L307.354 226.636C308.626 233.122 314.905 237.359 321.396 236.111L319.13 224.327ZM317.084 213.892L313.289 202.508C307.564 204.417 304.147 210.28 305.308 216.201L317.084 213.892ZM326.086 209.801L320.859 198.999C320.812 199.021 320.766 199.044 320.719 199.068L326.086 209.801ZM339.384 200.594L331.597 191.464C331.546 191.508 331.495 191.552 331.445 191.596L339.384 200.594ZM353.501 148.015L364.501 143.219C364.467 143.141 364.432 143.063 364.397 142.986L353.501 148.015ZM342.658 133.693L350.614 124.71L350.614 124.71L342.658 133.693ZM271.46 122.645L268.595 110.993C268.551 111.003 268.506 111.015 268.462 111.026L271.46 122.645ZM249.774 131.034L255.602 141.523C255.635 141.505 255.669 141.486 255.702 141.467L249.774 131.034ZM234.839 142.695L243.853 150.617C243.859 150.61 243.864 150.604 243.87 150.597L234.839 142.695ZM225.632 156.607L236.426 161.85C236.467 161.766 236.507 161.681 236.546 161.596L225.632 156.607ZM220.927 170.724L232.694 173.077C232.712 172.988 232.728 172.899 232.744 172.809L220.927 170.724ZM226.655 210.824L236.93 204.624C236.914 204.597 236.898 204.571 236.881 204.544L226.655 210.824ZM245.682 231.896L253.218 222.558C253.159 222.51 253.099 222.462 253.038 222.415L245.682 231.896ZM272.279 248.877L277.82 238.233C277.781 238.213 277.743 238.193 277.704 238.174L272.279 248.877ZM302.967 264.222L308.22 253.432C308.202 253.423 308.183 253.414 308.165 253.405L302.967 264.222ZM333.451 279.975L339.218 269.451L333.451 279.975ZM360.252 298.593L368.254 289.65C368.228 289.627 368.202 289.604 368.176 289.581L360.252 298.593ZM379.075 322.325L389.676 316.703C389.664 316.681 389.652 316.658 389.64 316.636L379.075 322.325ZM376.21 398.023L365.477 392.657C365.47 392.671 365.463 392.686 365.456 392.7L376.21 398.023ZM349.205 432.599L341.468 423.426C341.447 423.444 341.425 423.462 341.404 423.48L349.205 432.599ZM309.923 455.104L313.933 466.414C313.944 466.41 313.955 466.406 313.966 466.402L309.923 455.104ZM202.309 445.284L210.069 436.13C210.037 436.103 210.005 436.076 209.972 436.049L202.309 445.284ZM188.397 427.075L199.461 422.428C199.435 422.366 199.408 422.304 199.381 422.242L188.397 427.075ZM188.397 383.088L199.416 387.841C199.442 387.78 199.468 387.719 199.493 387.657L188.397 383.088ZM199.036 364.471L208.521 371.821C208.529 371.81 208.538 371.799 208.547 371.787L199.036 364.471ZM212.334 350.968L205.178 341.335C205.12 341.378 205.062 341.422 205.004 341.466L212.334 350.968ZM225.019 343.398L234.703 336.312C231.451 331.867 225.591 330.207 220.491 332.285L225.019 343.398ZM224.024 342.136C219.905 345.18 216.288 348.814 213.168 352.974L232.368 367.374C234.158 364.987 236.134 363.029 238.289 361.436L224.024 342.136ZM213.36 352.726C210.179 356.743 207.503 361.094 205.337 365.76L227.105 375.866C228.486 372.893 230.174 370.152 232.177 367.623L213.36 352.726ZM205.337 365.76C203.195 370.373 201.561 375.207 200.424 380.241L223.835 385.527C224.607 382.104 225.701 378.891 227.105 375.866L205.337 365.76ZM200.424 380.241C199.272 385.342 198.697 390.525 198.697 395.773L222.697 395.773C222.697 392.291 223.077 388.882 223.835 385.527L200.424 380.241ZM198.697 395.773C198.697 403.768 200.118 411.626 202.891 419.29L225.46 411.127C223.595 405.971 222.697 400.871 222.697 395.773L198.697 395.773ZM202.791 419.004C205.573 427.35 210.175 434.76 216.421 441.175L233.616 424.432C229.769 420.481 227.142 416.162 225.559 411.414L202.791 419.004ZM216.201 440.943C222.487 447.752 230.434 452.963 239.662 456.781L248.838 434.605C242.244 431.876 237.371 428.493 233.836 424.664L216.201 440.943ZM239.662 456.781C249.414 460.816 260.683 462.603 273.097 462.603L273.097 438.603C262.87 438.603 254.908 437.116 248.838 434.605L239.662 456.781ZM273.097 462.603C286.976 462.603 300.244 460.335 312.819 455.735L304.573 433.196C294.779 436.779 284.315 438.603 273.097 438.603L273.097 462.603ZM312.819 455.735C325.163 451.218 336.19 445.049 345.78 437.161L330.533 418.626C323.21 424.65 314.597 429.528 304.573 433.196L312.819 455.735ZM345.854 437.1C355.294 429.207 362.906 419.979 368.573 409.432L347.431 398.072C343.278 405.802 337.66 412.667 330.46 418.687L345.854 437.1ZM368.573 409.432C374.38 398.623 377.367 387.133 377.367 375.109L353.367 375.109C353.367 382.999 351.444 390.604 347.431 398.072L368.573 409.432ZM377.367 375.109C377.367 362.657 374.431 351.139 368.292 340.906L347.712 353.254C351.393 359.389 353.367 366.557 353.367 375.109L377.367 375.109ZM368.168 340.705C362.38 331.476 354.956 323.168 346.028 315.753L330.695 334.216C337.861 340.168 343.53 346.591 347.836 353.456L368.168 340.705ZM345.858 315.614C337.047 308.566 327.158 302.108 316.235 296.215L304.84 317.337C314.648 322.629 323.308 328.31 330.865 334.355L345.858 315.614ZM316.235 296.215C305.775 290.572 295.112 285 284.246 279.499L273.405 300.91C284.09 306.32 294.568 311.796 304.84 317.337L316.235 296.215ZM284.246 279.499C273.67 274.143 263.297 268.522 253.127 262.634L241.102 283.404C251.664 289.519 262.431 295.354 273.405 300.91L284.246 279.499ZM253.023 262.575C243.375 257.116 234.917 251.022 227.597 244.322L211.393 262.026C220.166 270.056 230.122 277.192 241.205 283.463L253.023 262.575ZM227.522 244.254C220.303 237.757 214.641 230.585 210.425 222.739L189.283 234.098C194.887 244.528 202.319 253.86 211.467 262.093L227.522 244.254ZM210.359 222.617C206.431 215.506 204.284 206.987 204.284 196.707L180.284 196.707C180.284 210.432 183.184 223.054 189.349 234.219L210.359 222.617ZM204.284 196.707C204.284 187.24 206.518 178.152 211.117 169.3L189.819 158.236C183.506 170.389 180.284 183.259 180.284 196.707L204.284 196.707ZM211.117 169.3C215.82 160.245 222.328 152.097 230.782 144.85L215.163 126.628C204.523 135.749 196.027 146.286 189.819 158.236L211.117 169.3ZM230.706 144.915C239.082 137.855 249.09 132.111 260.878 127.768L252.582 105.248C238.455 110.452 225.958 117.529 215.239 126.564L230.706 144.915ZM261.022 127.714C272.363 123.37 284.74 121.142 298.262 121.142L298.262 97.1424C282.05 97.1424 266.739 99.8246 252.438 105.301L261.022 127.714ZM298.262 121.142C314.125 121.142 326.494 122.912 335.752 126.036L343.426 103.296C330.861 99.0558 315.678 97.1424 298.262 97.1424L298.262 121.142ZM335.837 126.065C345.619 129.284 352.696 133.143 357.59 137.308L373.145 119.031C365.218 112.284 355.108 107.141 343.34 103.268L335.837 126.065ZM357.493 137.225C362.642 141.702 365.684 146.042 367.286 150.137L389.636 141.391C386.328 132.938 380.641 125.548 373.241 119.114L357.493 137.225ZM367.255 150.056C369.315 155.436 370.144 159.899 370.144 163.563L394.144 163.563C394.144 156.316 392.517 148.913 389.667 141.472L367.255 150.056ZM370.144 163.563C370.144 169.023 369.309 173.53 367.875 177.26L390.275 185.875C392.932 178.966 394.144 171.47 394.144 163.563L370.144 163.563ZM367.933 177.111C366.193 181.462 363.965 185.19 361.288 188.382L379.676 203.804C384.092 198.54 387.592 192.584 390.216 186.024L367.933 177.111ZM361.169 188.526C358.261 192.104 355.075 195.113 351.612 197.601L365.619 217.09C370.886 213.304 375.61 208.811 379.795 203.66L361.169 188.526ZM351.558 197.641C347.617 200.507 343.696 202.837 339.799 204.671L350.018 226.387C355.395 223.856 360.613 220.731 365.674 217.05L351.558 197.641ZM339.665 204.735C335.346 206.833 331.334 208.439 327.621 209.599L334.78 232.507C339.797 230.939 344.923 228.863 350.151 226.323L339.665 204.735ZM327.406 209.669C323.26 211.051 319.761 211.985 316.864 212.542L321.396 236.111C325.591 235.304 330.14 234.056 334.995 232.437L327.406 209.669ZM330.906 222.018L328.86 211.583L305.308 216.201L307.354 226.636L330.906 222.018ZM320.879 225.277C323.447 224.421 327.183 222.669 331.453 220.534L320.719 199.068C316.26 201.297 313.994 202.273 313.289 202.508L320.879 225.277ZM331.313 220.603C336.776 217.959 342.111 214.192 347.324 209.592L331.445 191.596C327.383 195.18 323.852 197.551 320.859 198.999L331.313 220.603ZM347.172 209.724C352.952 204.794 357.865 198.746 361.991 191.764L341.329 179.554C338.362 184.575 335.092 188.483 331.597 191.464L347.172 209.724ZM361.991 191.764C366.807 183.614 368.979 174.336 368.979 164.382L344.979 164.382C344.979 170.795 343.605 175.702 341.329 179.554L361.991 191.764ZM368.979 164.382C368.979 157.077 367.454 149.993 364.501 143.219L342.501 152.81C344.185 156.675 344.979 160.502 344.979 164.382L368.979 164.382ZM364.397 142.986C361.186 136.03 356.52 129.941 350.614 124.71L334.701 142.676C338.343 145.902 340.906 149.36 342.605 153.043L364.397 142.986ZM350.614 124.71C344.569 119.356 337.369 115.243 329.252 112.219L320.874 134.709C326.669 136.868 331.199 139.574 334.701 142.676L350.614 124.71ZM329.252 112.219C320.668 109.021 311.079 107.577 300.717 107.577L300.717 131.577C308.904 131.577 315.545 132.724 320.874 134.709L329.252 112.219ZM300.717 107.577C288.843 107.577 278.087 108.658 268.595 110.993L274.326 134.298C281.474 132.541 290.222 131.577 300.717 131.577L300.717 107.577ZM268.462 111.026C259.238 113.406 250.973 116.551 243.846 120.6L255.702 141.467C260.578 138.697 266.77 136.249 274.459 134.265L268.462 111.026ZM243.946 120.544C236.846 124.488 230.707 129.195 225.808 134.793L243.87 150.597C246.609 147.467 250.426 144.399 255.602 141.523L243.946 120.544ZM225.825 134.774C221.204 140.032 217.451 145.641 214.719 151.618L236.546 161.596C238.178 158.026 240.563 154.36 243.853 150.617L225.825 134.774ZM214.838 151.364C212.094 157.013 210.144 162.778 209.109 168.639L232.744 172.809C233.347 169.396 234.533 165.749 236.426 161.85L214.838 151.364ZM209.16 168.371C208.09 173.719 207.495 178.823 207.495 183.613L231.495 183.613C231.495 180.765 231.854 177.276 232.694 173.077L209.16 168.371ZM207.495 183.613C207.495 195.887 210.344 207.192 216.429 217.103L236.881 204.544C233.419 198.906 231.495 192.071 231.495 183.613L207.495 183.613ZM216.381 217.024C221.979 226.3 229.347 234.411 238.326 241.377L253.038 222.415C246.196 217.106 240.879 211.169 236.93 204.624L216.381 217.024ZM238.146 241.235C246.645 248.094 256.234 254.198 266.854 259.581L277.704 238.174C268.411 233.463 260.268 228.247 253.218 222.558L238.146 241.235ZM266.738 259.522C276.812 264.766 287.157 269.938 297.77 275.038L308.165 253.405C297.773 248.412 287.659 243.355 277.82 238.233L266.738 259.522ZM297.715 275.011C307.91 279.974 317.9 285.137 327.685 290.499L339.218 269.451C329.089 263.901 318.757 258.562 308.22 253.432L297.715 275.011ZM327.685 290.499C336.928 295.564 345.128 301.273 352.328 307.604L368.176 289.581C359.555 282 349.887 275.298 339.218 269.451L327.685 290.499ZM352.251 307.536C359.026 313.598 364.419 320.418 368.509 328.014L389.64 316.636C384.183 306.501 377.027 297.5 368.254 289.65L352.251 307.536ZM368.473 327.947C372.178 334.933 374.235 343.441 374.235 353.832L398.235 353.832C398.235 340.218 395.519 327.721 389.676 316.703L368.473 327.947ZM374.235 353.832C374.235 368.21 371.264 381.083 365.477 392.657L386.944 403.39C394.523 388.231 398.235 371.643 398.235 353.832L374.235 353.832ZM365.456 392.7C359.49 404.753 351.507 414.96 341.468 423.426L356.941 441.772C369.544 431.143 379.564 418.3 386.965 403.346L365.456 392.7ZM341.404 423.48C331.258 432.159 319.456 438.948 305.881 443.805L313.966 466.402C330.124 460.621 344.51 452.407 357.005 441.718L341.404 423.48ZM305.913 443.794C292.245 448.64 277.851 451.083 262.663 451.083L262.663 475.083C280.482 475.083 297.595 472.207 313.933 466.414L305.913 443.794ZM262.663 451.083C249.483 451.083 238.818 449.539 230.403 446.773L222.907 469.572C234.406 473.353 247.746 475.083 262.663 475.083L262.663 451.083ZM230.403 446.773C221.53 443.856 214.888 440.216 210.069 436.13L194.549 454.437C202.278 460.99 211.867 465.943 222.907 469.572L230.403 446.773ZM209.972 436.049C204.858 431.805 201.487 427.253 199.461 422.428L177.333 431.722C181.035 440.536 186.939 448.123 194.646 454.518L209.972 436.049ZM199.381 422.242C197.016 416.867 195.896 411.552 195.896 406.207L171.896 406.207C171.896 415.047 173.777 423.644 177.413 431.908L199.381 422.242ZM195.896 406.207C195.896 399.195 197.134 393.131 199.416 387.841L177.378 378.335C173.659 386.958 171.896 396.306 171.896 406.207L195.896 406.207ZM199.493 387.657C201.984 381.608 205.008 376.354 208.521 371.821L189.551 357.12C184.607 363.499 180.538 370.656 177.301 378.519L199.493 387.657ZM208.547 371.787C212.079 367.196 215.795 363.454 219.664 360.469L205.004 341.466C199.326 345.847 194.176 351.107 189.524 357.154L208.547 371.787ZM219.49 360.601C223.811 357.39 227.137 355.493 229.546 354.511L220.491 332.285C215.535 334.304 210.404 337.452 205.178 341.335L219.49 360.601ZM215.334 350.484L221.472 358.872L240.841 344.7L234.703 336.312L215.334 350.484Z" fill="#4E1700"/>
</g>
<defs>
<filter id="filter0_d_175:18" x="168.896" y="109.142" width="232.339" height="392.94" filterUnits="userSpaceOnUse" color-interpolation-filters="sRGB">
<feFlood flood-opacity="0" result="BackgroundImageFix"/>
<feColorMatrix in="SourceAlpha" type="matrix" values="0 0 0 0 0 0 0 0 0 0 0 0 0 0 0 0 0 0 127 0" result="hardAlpha"/>
<feOffset dy="24"/>
<feGaussianBlur stdDeviation="7.5"/>
<feComposite in2="hardAlpha" operator="out"/>
<feColorMatrix type="matrix" values="0 0 0 0 0.7625 0 0 0 0 0.661998 0 0 0 0 0.530573 0 0 0 1 0"/>
<feBlend mode="normal" in2="BackgroundImageFix" result="effect1_dropShadow_175:18"/>
<feBlend mode="normal" in="SourceGraphic" in2="effect1_dropShadow_175:18" result="shape"/>
</filter>
</defs>
</svg>
