<svg width="27" height="26" viewBox="0 0 27 26" fill="none" xmlns="http://www.w3.org/2000/svg">
<path d="M23.594 0.0630116C23.488 0.0630116 23.387 0.113012 23.281 0.219012L22.531 0.969012L22.219 0.656012L21.781 1.06201L22.125 1.40601L21.687 1.81301L21.375 1.50001L20.937 1.93801L21.25 2.25001L20.531 3.00001C20.316 3.21501 20.316 3.41001 20.531 3.62501L16.344 7.81301C15.41 7.06601 14.414 6.50001 13.469 6.21901C11.711 5.69901 10.149 6.07401 8.937 7.28101C8.402 7.81601 8.074 8.46901 7.937 9.25001C7.719 10.516 6.602 11.504 5.281 11.594C3.84 11.691 2.574 12.27 1.625 13.219C-0.879004 15.723 -0.425004 20.266 2.656 23.344C4.406 25.094 6.636 26 8.688 26C10.25 26 11.699 25.457 12.781 24.375C13.731 23.425 14.309 22.16 14.406 20.719C14.496 19.399 15.453 18.281 16.719 18.062C17.5 17.926 18.184 17.598 18.719 17.062C19.926 15.855 20.301 14.289 19.781 12.532C19.609 11.945 19.301 11.348 18.938 10.75L17.468 12.219C17.625 12.519 17.758 12.809 17.844 13.094C18.152 14.133 17.988 14.98 17.312 15.656C17.07 15.895 16.782 16.027 16.406 16.094C14.242 16.469 12.555 18.367 12.406 20.594C12.344 21.543 11.976 22.364 11.375 22.969C9.648 24.691 6.395 24.239 4.094 21.937C1.793 19.637 1.309 16.347 3.031 14.625C3.637 14.023 4.457 13.656 5.406 13.594C7.633 13.445 9.527 11.758 9.906 9.59401C9.973 9.21901 10.102 8.93001 10.344 8.68801C10.809 8.22301 11.34 8.00001 11.969 8.00001C12.254 8.00001 12.582 8.05901 12.906 8.15601C13.536 8.34401 14.238 8.71501 14.906 9.21901L11.563 12.563C11.1964 12.4787 10.8156 12.4781 10.4488 12.5612C10.0819 12.6444 9.73858 12.8092 9.44424 13.0434C9.1499 13.2776 8.91215 13.5751 8.74867 13.9139C8.58519 14.2526 8.50019 14.6239 8.5 15C8.5 16.378 9.621 17.499 11 17.499C12.379 17.499 13.5 16.378 13.5 14.999C13.5 14.847 13.465 14.706 13.437 14.561L22.531 5.43601C22.746 5.65101 22.973 5.65101 23.188 5.43601L23.938 4.68601L24.25 4.99901L24.656 4.59301L24.344 4.28001L24.781 3.84301L25 4.28001L25.406 3.84301L25.094 3.53001L25.844 2.78001C26.059 2.56501 26.059 2.33901 25.844 2.12401L23.937 0.218012C23.8468 0.124132 23.7241 0.0683194 23.594 0.0620117V0.0630116ZM23.5 1.28001L23.938 1.71801L22 3.62501L21.594 3.21901L23.5 1.28001ZM24.344 2.03001L24.781 2.46801L22.844 4.37401L22.437 3.93601L24.344 2.03001ZM6.094 16.688L4.688 18.094L7.906 21.312L9.312 19.906L6.094 16.688Z" fill="#4E1700"/>
</svg>
