<svg width="50" height="51" viewBox="0 0 50 51" fill="none" xmlns="http://www.w3.org/2000/svg">
<path d="M41.8925 2.16871C40.0792 1.12157 38.0775 0.441867 36.0015 0.16841C33.9255 -0.105048 31.816 0.0330963 29.7934 0.574954C27.7708 1.11681 25.8747 2.05177 24.2135 3.32644C22.5523 4.60111 21.1584 6.19052 20.1115 8.00392L19.5107 9.04171C19.4086 9.21849 19.3423 9.41368 19.3157 9.61609C19.2891 9.81851 19.3026 10.0242 19.3555 10.2214C19.4084 10.4186 19.4996 10.6034 19.624 10.7653C19.7484 10.9272 19.9035 11.063 20.0804 11.1649L31.3925 17.6961L24.623 29.5426H24.4822C17.9406 29.5426 12.2752 33.3375 8.90088 38.7004C9.47734 38.4973 10.0916 38.424 10.6996 38.486C11.3077 38.5479 11.8945 38.7435 12.4182 39.0588C15.343 35.1914 19.7055 32.6498 24.4822 32.6498C29.4619 32.6498 33.9921 35.4131 36.9107 39.5601C37.3141 39.1882 37.7873 38.9002 38.303 38.7128C38.8186 38.5254 39.3663 38.4423 39.9143 38.4684C37.1572 34.2054 32.9398 30.9698 27.9912 29.9134L34.0832 19.2497L45.0059 25.5551C45.1825 25.6573 45.3776 25.7237 45.58 25.7505C45.7823 25.7773 45.9879 25.764 46.1851 25.7113C46.3823 25.6586 46.5671 25.5675 46.7291 25.4433C46.8911 25.3192 47.027 25.1643 47.1291 24.9876L47.7298 23.9477C49.8438 20.2855 50.4164 15.9336 49.3217 11.8493C48.227 7.76494 45.5546 4.28274 41.8925 2.16871ZM37.3561 17.5491L30.8166 13.7749C32.0015 11.95 33.1283 10.558 34.4789 9.32964C35.7942 8.13442 37.3644 7.05106 39.4938 5.87656C39.8087 7.85478 39.904 9.50156 39.701 11.1173C39.4607 13.0478 38.7792 15.0364 37.354 17.5491H37.3561ZM40.0448 19.1026C41.6191 16.3311 42.4808 13.9448 42.7853 11.5005C42.9862 9.89928 42.9407 8.31671 42.7397 6.64506C44.7938 8.58784 46.1493 11.1541 46.5961 13.9458C47.0429 16.7376 46.556 19.5987 45.211 22.0855L40.0448 19.1026ZM32.3888 7.03035C30.7524 8.52178 29.437 10.1789 28.1217 12.2193L22.9845 9.25299C24.4337 6.89627 26.6051 5.0705 29.1756 4.04745C31.7461 3.0244 34.5782 2.85877 37.2505 3.57521C35.3261 4.68342 33.7601 5.78335 32.3888 7.03035ZM11.7574 42.1203C11.6512 41.8007 11.444 41.5241 11.167 41.3325C10.89 41.1408 10.5582 41.0443 10.2216 41.0577C9.88495 41.071 9.5618 41.1934 9.30081 41.4063C9.03981 41.6193 8.8551 41.9113 8.77453 42.2384C8.24631 44.3969 7.24581 45.5796 6.10653 46.2694C4.91338 46.9882 3.39295 47.2678 1.69645 47.2678C1.28442 47.2678 0.889265 47.4315 0.597914 47.7229C0.306562 48.0142 0.142883 48.4094 0.142883 48.8214C0.142883 49.2335 0.306562 49.6286 0.597914 49.92C0.889265 50.2113 1.28442 50.375 1.69645 50.375C3.67881 50.375 5.83931 50.0601 7.71188 48.9291C8.82937 48.255 9.77134 47.3258 10.4607 46.2176C14.1665 50.9446 21.402 50.9198 25 46.1679C28.6561 50.9944 36.0615 50.9446 39.7134 45.9898C40.7048 47.3392 41.9977 48.4384 43.4891 49.1997C44.9805 49.9611 46.6292 50.3635 48.3036 50.375C48.7156 50.375 49.1108 50.2113 49.4021 49.92C49.6935 49.6286 49.8572 49.2335 49.8572 48.8214C49.8572 48.4094 49.6935 48.0142 49.4021 47.7229C49.1108 47.4315 48.7156 47.2678 48.3036 47.2678C45.2482 47.2678 42.2032 45.2793 41.1986 42.1348C41.0992 41.8219 40.9032 41.5485 40.6387 41.3539C40.3743 41.1593 40.055 41.0535 39.7267 41.0517C39.3983 41.0499 39.0779 41.1521 38.8112 41.3437C38.5446 41.5353 38.3456 41.8065 38.2427 42.1183C36.2479 48.1441 28.4282 48.0674 26.4687 42.3669C26.3632 42.0612 26.1651 41.7961 25.9018 41.6084C25.6386 41.4208 25.3233 41.3199 25 41.3199C24.6767 41.3199 24.3615 41.4208 24.0982 41.6084C23.835 41.7961 23.6368 42.0612 23.5314 42.3669C21.5718 48.0674 13.7542 48.1441 11.7574 42.1183V42.1203Z" fill="#4E1700"/>
</svg>
