<svg width="66" height="66" viewBox="0 0 66 66" fill="none" xmlns="http://www.w3.org/2000/svg">
<path d="M4.125 57.75H61.875V61.875H4.125V57.75Z" fill="#4E1700"/>
<path d="M50.5312 22.6875H16.5C15.4063 22.6886 14.3577 23.1235 13.5844 23.8969C12.811 24.6702 12.3761 25.7188 12.375 26.8125V43.3125C12.3783 46.0465 13.4658 48.6677 15.3991 50.6009C17.3323 52.5342 19.9535 53.6217 22.6875 53.625H39.1875C41.9215 53.6217 44.5427 52.5342 46.4759 50.6009C48.4092 48.6677 49.4967 46.0465 49.5 43.3125V41.25H50.5312C52.9928 41.25 55.3535 40.2722 57.0941 38.5316C58.8347 36.791 59.8125 34.4303 59.8125 31.9688C59.8125 29.5072 58.8347 27.1465 57.0941 25.4059C55.3535 23.6653 52.9928 22.6875 50.5312 22.6875ZM45.375 43.3125C45.3734 44.953 44.7209 46.5259 43.5609 47.6859C42.4009 48.8459 40.828 49.4984 39.1875 49.5H22.6875C21.047 49.4984 19.4741 48.8459 18.3141 47.6859C17.1541 46.5259 16.5016 44.953 16.5 43.3125V26.8125H45.375V43.3125ZM50.5312 37.125H49.5V26.8125H50.5312C51.8988 26.8125 53.2103 27.3557 54.1773 28.3227C55.1443 29.2897 55.6875 30.6012 55.6875 31.9688C55.6875 33.3363 55.1443 34.6478 54.1773 35.6148C53.2103 36.5818 51.8988 37.125 50.5312 37.125Z" fill="#4E1700"/>
<path d="M39.1875 18.5625H35.0625V18.2614C35.0655 17.4948 34.8536 16.7427 34.4508 16.0905C34.0479 15.4383 33.4703 14.9121 32.7835 14.5716L27.2456 11.8057C25.8724 11.1242 24.7176 10.0716 23.912 8.76733C23.1064 7.46303 22.6822 5.95916 22.6875 4.42612V2.0625H26.8125V4.42612C26.81 5.19261 27.0221 5.9445 27.4249 6.59663C27.8277 7.24876 28.4051 7.77506 29.0916 8.11594L34.6273 10.8818C36.0008 11.5632 37.1559 12.6157 37.9619 13.92C38.7678 15.2242 39.1924 16.7282 39.1875 18.2614V18.5625Z" fill="#4E1700"/>
</svg>
