<svg width="49" height="61" viewBox="0 0 49 61" fill="none" xmlns="http://www.w3.org/2000/svg">
<path fill-rule="evenodd" clip-rule="evenodd" d="M0.833313 58.6042C0.833313 58.2119 0.989154 57.8356 1.26655 57.5582C1.54395 57.2808 1.92018 57.125 2.31248 57.125H46.6875C47.0798 57.125 47.456 57.2808 47.7334 57.5582C48.0108 57.8356 48.1666 58.2119 48.1666 58.6042C48.1666 58.9965 48.0108 59.3727 47.7334 59.6501C47.456 59.9275 47.0798 60.0833 46.6875 60.0833H2.31248C1.92018 60.0833 1.54395 59.9275 1.26655 59.6501C0.989154 59.3727 0.833313 58.9965 0.833313 58.6042Z" fill="#4E1700"/>
<path fill-rule="evenodd" clip-rule="evenodd" d="M6.74996 27.5417V57.125H14.1458V27.5417H6.74996ZM5.27079 24.5833C4.87849 24.5833 4.50226 24.7392 4.22486 25.0166C3.94747 25.294 3.79163 25.6702 3.79163 26.0625V58.6042C3.79163 58.9965 3.94747 59.3727 4.22486 59.6501C4.50226 59.9275 4.87849 60.0833 5.27079 60.0833H15.625C16.0173 60.0833 16.3935 59.9275 16.6709 59.6501C16.9483 59.3727 17.1041 58.9965 17.1041 58.6042V26.0625C17.1041 25.6702 16.9483 25.294 16.6709 25.0166C16.3935 24.7392 16.0173 24.5833 15.625 24.5833H5.27079Z" fill="#4E1700"/>
<path fill-rule="evenodd" clip-rule="evenodd" d="M14.1458 0.916672L37.8125 9.79167V30.5H34.8541V11.8418L17.1041 5.18555V57.125H28.9375C28.9375 57.5173 29.0933 57.8935 29.3707 58.1709C29.6481 58.4483 30.0243 58.6042 30.4166 58.6042H37.8125V60.0833H14.1458V0.916672Z" fill="#4E1700"/>
<path d="M18.5833 14.2292H21.5416V17.1875H18.5833V14.2292Z" fill="#4E1700"/>
<path d="M24.5 14.2292H27.4583V17.1875H24.5V14.2292Z" fill="#4E1700"/>
<path d="M30.4166 14.2292H33.375V17.1875H30.4166V14.2292Z" fill="#4E1700"/>
<path d="M18.5833 20.1458H21.5416V23.1042H18.5833V20.1458Z" fill="#4E1700"/>
<path d="M24.5 20.1458H27.4583V23.1042H24.5V20.1458Z" fill="#4E1700"/>
<path d="M30.4166 20.1458H33.375V23.1042H30.4166V20.1458Z" fill="#4E1700"/>
<path d="M18.5833 26.0625H21.5416V29.0208H18.5833V26.0625Z" fill="#4E1700"/>
<path d="M24.5 26.0625H27.4583V29.0208H24.5V26.0625Z" fill="#4E1700"/>
<path d="M30.4166 26.0625H33.375V29.0208H30.4166V26.0625Z" fill="#4E1700"/>
<path d="M18.5833 31.9792H21.5416V34.9375H18.5833V31.9792Z" fill="#4E1700"/>
<path d="M24.5 31.9792H27.4583V34.9375H24.5V31.9792Z" fill="#4E1700"/>
<path d="M18.5833 37.8958H21.5416V40.8542H18.5833V37.8958Z" fill="#4E1700"/>
<path d="M24.5 37.8958H27.4583V40.8542H24.5V37.8958Z" fill="#4E1700"/>
<path d="M18.5833 43.8125H21.5416V46.7708H18.5833V43.8125Z" fill="#4E1700"/>
<path d="M24.5 43.8125H27.4583V46.7708H24.5V43.8125Z" fill="#4E1700"/>
<path d="M18.5833 49.7292H21.5416V52.6875H18.5833V49.7292Z" fill="#4E1700"/>
<path d="M24.5 49.7292H27.4583V52.6875H24.5V49.7292Z" fill="#4E1700"/>
<path fill-rule="evenodd" clip-rule="evenodd" d="M31.8958 33.4583V57.125H42.25V33.4583H31.8958ZM30.4167 30.5C30.0244 30.5 29.6481 30.6558 29.3707 30.9332C29.0933 31.2106 28.9375 31.5869 28.9375 31.9792V58.6042C28.9375 58.9965 29.0933 59.3727 29.3707 59.6501C29.6481 59.9275 30.0244 60.0833 30.4167 60.0833H43.7292C44.1215 60.0833 44.4977 59.9275 44.7751 59.6501C45.0525 59.3727 45.2083 58.9965 45.2083 58.6042V31.9792C45.2083 31.5869 45.0525 31.2106 44.7751 30.9332C44.4977 30.6558 44.1215 30.5 43.7292 30.5H30.4167Z" fill="#4E1700"/>
<path fill-rule="evenodd" clip-rule="evenodd" d="M39.2916 39.375H34.8541V36.4167H39.2916V39.375Z" fill="#4E1700"/>
<path fill-rule="evenodd" clip-rule="evenodd" d="M39.2916 45.2917H34.8541V42.3333H39.2916V45.2917Z" fill="#4E1700"/>
<path fill-rule="evenodd" clip-rule="evenodd" d="M39.2916 51.2083H34.8541V48.25H39.2916V51.2083Z" fill="#4E1700"/>
<path fill-rule="evenodd" clip-rule="evenodd" d="M39.2916 57.125H34.8541V54.1667H39.2916V57.125Z" fill="#4E1700"/>
<path fill-rule="evenodd" clip-rule="evenodd" d="M11.1875 14.2292V27.5417H8.22913V14.2292H11.1875Z" fill="#4E1700"/>
</svg>
