<svg width="64" height="64" viewBox="0 0 64 64" fill="none" xmlns="http://www.w3.org/2000/svg">
<path d="M62 5.457V3.577C53.775 0.678997 46.119 2.174 38.675 4.867C37.838 3.28 36.335 2.093 34.445 2.029C32.213 1.953 30.069 3.306 28.924 5.181C28.126 6.486 27.92 7.848 28.028 9.233C22.056 11.767 16.111 14.078 10 14.434C4.274 15.006 4.722 14.945 2 15.275V48.249L9.999 49.148V49.138C19.058 52.458 29.624 51.38 39.771 52.047C40.401 53.775 41.064 55.643 40.571 57.333C39.972 59.374 37.83 60.612 35.768 60.356C38.163 59.598 39.367 56.745 37.968 54.586C36.791 52.769 34.131 52.309 32.421 53.619C28.827 56.373 32.203 61.264 35.736 61.903C38.026 62.319 40.359 61.341 41.737 59.478C43.265 57.412 43.088 55.158 42.49 52.791C42.445 52.614 42.397 52.438 42.352 52.262C49.41 52.973 56.182 54.792 62 59.854V57.963C56.055 52.437 49.09 50.727 41.828 50.251C41.362 48.484 39.651 42.195 39.651 42.195C39.651 42.195 41.261 41.726 43.069 39.974C49.379 39.7 55.689 40.507 62 44.135V42.21C56.318 38.687 50.637 37.71 44.955 37.858C46.935 35.065 47.804 31.508 46.804 28.118C51.869 28.024 56.935 29.161 62 32.743V30.817C56.725 27.139 51.45 26.109 46.176 26.363C44.125 22.209 38.305 20.615 34.371 23.078L33.744 20.809C43.163 18.351 52.581 16.499 62 21.35V19.43C52.445 15.125 42.892 16.997 33.338 19.356C33.325 19.314 33.316 19.271 33.301 19.229C33.233 19.022 34.176 18.092 34.318 17.916C35.2616 16.7502 36.1515 15.5419 36.985 14.295C38.429 12.109 39.77 9.457 39.32 6.753C39.312 6.707 39.296 6.663 39.287 6.617C46.55 4.231 54.007 2.936 62 5.457ZM31.792 5.695C32.664 4.863 34.143 4.264 35.307 4.822C35.742 5.03 36.07 5.364 36.308 5.763C34.4184 6.51411 32.5402 7.29353 30.674 8.101C30.745 7.23 31.045 6.404 31.792 5.695V5.695ZM31.398 26.406C31.1136 26.9957 30.9037 27.6185 30.773 28.26C30.685 28.69 30.649 29.127 30.635 29.565C29.058 30.01 27.48 30.452 25.902 30.854C25.9166 29.7205 26.1449 28.5999 26.575 27.551C27.572 25.168 29.538 23.373 31.251 21.512C31.55 22.588 31.775 23.713 32.16 24.762C32.155 24.751 32.153 24.745 32.164 24.776C32.327 25.215 31.609 25.969 31.398 26.406V26.406ZM32.758 26.967C32.93 27.586 33.101 28.206 33.271 28.825L31.903 29.207C32.0492 28.4145 32.3389 27.6553 32.758 26.967V26.967ZM9.999 15.594C16.208 15.279 22.228 13.125 28.263 10.764C28.358 11.185 28.463 11.608 28.59 12.031C29.021 13.4766 29.4371 14.9267 29.838 16.381L30.282 18C30.311 18.1 30.422 18.498 30.443 18.492C30.174 19.035 29.54 19.547 29.137 20C28.981 20.175 28.821 20.349 28.66 20.523C22.44 22.064 16.22 23.42 9.999 23.02V15.594V15.594ZM9.999 24.674C15.562 25.162 21.126 24.074 26.688 22.668C25.931 23.536 25.229 24.446 24.694 25.467C23.7257 27.318 23.2501 29.387 23.313 31.475C18.875 32.459 14.437 32.981 9.999 32.231V24.674V24.674ZM9.999 33.645C14.484 34.448 18.97 33.95 23.455 32.989C23.927 35.882 25.485 38.499 27.72 40.333C21.813 41.382 15.906 42.123 9.999 40.979V33.645ZM9.999 47.902V42.154C16.524 43.392 23.05 42.566 29.574 41.588C30.025 41.832 30.49 42.053 30.972 42.237C32.947 42.993 35.06 43.182 37.144 42.871C37.855 45.276 38.429 47.719 39.128 50.129C29.192 49.844 18.878 51.247 9.999 47.902V47.902ZM44.257 28.689C45.196 32.089 43.945 35.787 41.386 38.086C40.4565 38.179 39.529 38.2907 38.604 38.421L36.201 29.712C38.84 29.065 41.477 28.526 44.116 28.268C44.164 28.408 44.217 28.545 44.257 28.689V28.689ZM35.369 24.572C38.22 23.143 41.515 24.213 43.262 26.628C40.765 26.952 38.267 27.503 35.771 28.151C35.558 27.382 35.346 26.615 35.135 25.845C34.937 25.133 34.649 24.934 35.369 24.572ZM33.692 30.355L36.026 38.818C34.53 39.069 33.033 39.347 31.537 39.629C29.432 38.697 27.655 37.014 26.7 34.875C26.3522 34.0872 26.1156 33.2549 25.997 32.402C27.577 32.011 29.157 31.584 30.737 31.154C30.8 31.525 30.881 31.894 30.993 32.256C31.116 32.651 31.677 32.717 31.888 32.356C32.073 32.041 31.873 31.352 31.797 30.866C32.429 30.693 33.062 30.523 33.692 30.355V30.355ZM32.448 16.113C32.028 14.593 31.611 13.076 31.19 11.56C31.023 10.9724 30.8832 10.3774 30.771 9.777C32.776 8.985 34.786 8.197 36.807 7.469C36.82 7.649 36.825 7.828 36.818 8.001C36.683 11.091 34.309 13.844 32.448 16.113" fill="#4E1700"/>
</svg>
