<svg width="48" height="36" viewBox="0 0 48 36" fill="none" xmlns="http://www.w3.org/2000/svg">
<path d="M8.32653 16.0132C6.19851 16.5487 4.33926 17.8429 3.09811 19.6525C1.85695 21.4621 1.31932 23.6627 1.58623 25.8408C1.85313 28.0188 2.9062 30.0245 4.54758 31.4809C6.18896 32.9373 8.30568 33.7442 10.5 33.75H35.25C36.8386 33.7489 38.409 33.4114 39.8577 32.7597C41.3065 32.108 42.6008 31.1568 43.6554 29.9688C44.7101 28.7808 45.5012 27.383 45.9766 25.8672C46.4521 24.3514 46.6012 22.7521 46.414 21.1746C46.2269 19.5971 45.7077 18.0771 44.8908 16.7147C44.0739 15.3522 42.9777 14.1783 41.6743 13.27C40.371 12.3618 38.89 11.7399 37.329 11.4452C35.768 11.1506 34.1623 11.1898 32.6175 11.5605L29.625 12.375" stroke="#4E1700" stroke-width="3" stroke-linecap="round" stroke-linejoin="round"/>
<path d="M32.6176 11.5605C31.8485 8.51526 29.9504 5.87639 27.3078 4.17881C24.6653 2.48122 21.4762 1.85193 18.3869 2.41851C15.2976 2.98509 12.5393 4.70514 10.6712 7.22999C8.80307 9.75483 7.96489 12.8956 8.32655 16.0155C8.32655 16.0155 8.6708 18 9.37505 19.125" stroke="#4E1700" stroke-width="3" stroke-linecap="round" stroke-linejoin="round"/>
</svg>
