<svg width="63" height="85" viewBox="0 0 63 85" fill="none" xmlns="http://www.w3.org/2000/svg">
<path d="M50.1148 8.65596C54.6969 9.40544 55.5631 15.0981 55.4234 17.8507L61.0016 19.3454C60.2943 19.7538 58.3219 20.421 56.0906 19.8232C53.3015 19.0758 54.3077 17.5518 52.9733 13.607C51.6388 9.66219 49.3674 11.4451 49.0685 12.5607L48.0222 16.4655L40.797 54.587C40.3219 57.8476 39.1624 65.1499 38.3254 68.2737C37.4883 71.3975 35.094 74.3831 34.0015 75.4854C32.1519 77.1819 26.8907 80.1566 20.6431 78.4826C12.8335 76.39 10.8318 70.4728 13.0738 62.1054C14.8675 55.4116 12.5401 52.1972 11.1522 51.4267L27.4199 42.0345C31.5435 46.7267 28.4848 53.6795 28.0364 55.3529C27.6777 56.6917 26.2196 60.6456 25.5355 62.4552C24.9011 64.0788 24.0787 67.4457 25.8637 67.924C27.6488 68.4023 28.8922 65.5468 29.2908 64.0593L31.3833 56.2497L40.202 23.3382L42.2945 15.5286L43.3408 11.6239C43.6896 10.3223 45.5326 7.90647 50.1148 8.65596Z" stroke="#4E1700" stroke-width="1.5" stroke-linejoin="round"/>
<rect x="-0.981796" y="-0.249182" width="1.43249" height="24.5621" rx="0.716245" transform="matrix(-0.511426 -0.859327 -0.859327 0.511426 28.3548 37.9371)" stroke="#4E1700" stroke-width="1.43249"/>
<circle r="1.56" transform="matrix(-0.965926 -0.258819 -0.258819 0.965926 40.37 38.33)" stroke="#4E1700" stroke-width="1.5"/>
<circle r="1.56" transform="matrix(-0.965926 -0.258819 -0.258819 0.965926 38.5764 45.0239)" stroke="#4E1700" stroke-width="1.5"/>
<circle r="1.56" transform="matrix(-0.965926 -0.258819 -0.258819 0.965926 36.7828 51.7178)" stroke="#4E1700" stroke-width="1.5"/>
<g clip-path="url(#clip0_130:34)">
<path d="M22.7026 26.3154C22.6285 26.6983 22.4724 26.6094 22.4612 26.4119C22.4328 25.8885 21.782 24.2452 20.4007 24.5602L22.5409 29.9138C22.8486 30.683 22.4782 32.0929 20.9634 32.6988C20.1941 33.0065 19.4089 32.8515 19.1064 32.0952C18.713 31.1115 19.3697 30.159 20.3321 29.7741C20.9486 29.5275 21.3348 29.5884 21.3348 29.5884L18.6424 22.8569L19.5709 22.4855C20.0678 23.7278 23.2307 23.5764 22.7026 26.3154Z" fill="#4E1700"/>
</g>
<g clip-path="url(#clip1_130:34)">
<path d="M15.3733 26.69C15.1647 26.8977 15.1049 26.776 15.1816 26.6479C15.3858 26.309 15.676 25.0067 14.6797 24.6178L13.7468 28.8689C13.6128 29.4798 12.7837 30.2033 11.5807 29.9395C10.9698 29.8055 10.5451 29.3758 10.6768 28.7753C10.8481 27.994 11.6621 27.6776 12.4264 27.8451C12.916 27.9525 13.1314 28.1543 13.1314 28.1543L14.3037 22.8085L15.041 22.9702C14.8247 23.9568 16.8644 25.2031 15.3733 26.69Z" fill="#4E1700"/>
</g>
<g clip-path="url(#clip2_130:34)">
<path d="M8.8298 24.8455C8.78087 25.0704 8.68995 25.0158 8.68608 24.8992C8.67647 24.5901 8.31496 23.6118 7.49581 23.7787L8.68529 26.9661C8.8563 27.4241 8.61856 28.2507 7.71668 28.5875C7.25869 28.7585 6.7976 28.6563 6.62948 28.2061C6.41079 27.6204 6.8112 27.0675 7.38417 26.8535C7.75123 26.7165 7.97825 26.7577 7.97825 26.7577L6.48181 22.7499L7.0346 22.5435C7.31077 23.2832 9.1787 23.237 8.8298 24.8455Z" fill="#4E1700"/>
</g>
<g clip-path="url(#clip3_130:34)">
<path d="M17.1446 33.4322C17.1151 33.3387 17.066 33.2526 17.0004 33.1798C16.9348 33.1069 16.8544 33.0489 16.7645 33.0098C16.6746 32.9706 16.5774 32.9512 16.4794 32.9528C16.3814 32.9544 16.2849 32.977 16.1963 33.0191L11.653 35.1762C11.5209 35.2389 11.4123 35.3422 11.343 35.4709C11.2738 35.5997 11.2475 35.7473 11.268 35.892L12.048 41.4138C11.7097 41.2276 11.3184 41.1611 10.9375 41.225C10.5567 41.2889 10.2085 41.4796 9.94955 41.7661C9.69057 42.0526 9.53591 42.4182 9.51063 42.8035C9.48536 43.1889 9.59094 43.5715 9.81027 43.8894C10.0296 44.2073 10.3499 44.4418 10.7191 44.5549C11.0884 44.6681 11.485 44.6532 11.8448 44.5128C12.2045 44.3724 12.5064 44.1146 12.7013 43.7812C12.8963 43.4478 12.9729 43.0583 12.9189 42.6759L12.2348 37.8332L16.778 35.676L17.2884 39.2884C16.95 39.1022 16.5587 39.0356 16.1778 39.0996C15.797 39.1635 15.4488 39.3542 15.1899 39.6407C14.9309 39.9272 14.7762 40.2927 14.7509 40.6781C14.7257 41.0635 14.8313 41.4461 15.0506 41.764C15.2699 42.0819 15.5902 42.3164 15.9594 42.4295C16.3287 42.5426 16.7253 42.5278 17.0851 42.3874C17.4449 42.2469 17.7467 41.9891 17.9416 41.6557C18.1366 41.3224 18.2132 40.9329 18.1592 40.5505L17.1693 33.543C17.1639 33.505 17.1552 33.4681 17.1446 33.4322Z" fill="#4E1700"/>
</g>
<defs>
<clipPath id="clip0_130:34">
<rect width="10" height="10" fill="white" transform="translate(13.9999 24.7137) rotate(-21.8003)"/>
</clipPath>
<clipPath id="clip1_130:34">
<rect width="7.54874" height="7.54874" fill="white" transform="translate(10.6169 22) rotate(12.3685)"/>
</clipPath>
<clipPath id="clip2_130:34">
<rect width="5.90071" height="5.90071" fill="white" transform="translate(3.71783 23.782) rotate(-20.475)"/>
</clipPath>
<clipPath id="clip3_130:34">
<rect width="13.7152" height="13.7152" fill="white" transform="translate(5.99994 32.9185) rotate(-8.04093)"/>
</clipPath>
</defs>
</svg>
