<svg width="62" height="62" viewBox="0 0 62 62" fill="none" xmlns="http://www.w3.org/2000/svg">
<path d="M22.6494 37.0111C19.7625 34.7733 18.2706 29.9538 19.9902 26.4517C23.4244 19.438 36.052 21.8066 39.2489 27.7353C43.0464 34.7781 36.8367 40.3533 30.5834 39.8302C28.7719 39.68 26.7133 39.2247 25.0325 38.4497C24.1878 38.059 23.3886 37.5766 22.6494 37.0111Z" fill="#4E1700"/>
<path d="M29.1893 30.4384C29.2161 30.4036 29.2432 30.3684 29.2706 30.3327C29.8029 29.6396 30.4579 28.7869 31.6047 28.2603L31.6132 28.2564L31.6132 28.2564C32.7218 27.7599 34.0227 27.583 35.2806 27.7038L35.2838 27.7041C36.1171 27.7869 36.963 28.0031 37.7477 28.3783L37.7556 28.3821L37.7634 28.386C38.1224 28.5655 38.4693 28.7697 38.7978 29.0013C38.4702 28.1465 38.043 27.3677 37.5066 26.7233L37.5057 26.7222C36.8012 25.8733 35.9498 25.4105 34.8666 24.8218C34.6933 24.7276 34.5141 24.6302 34.3287 24.5275M29.1893 30.4384L34.812 23.652M29.1893 30.4384C29.182 30.4477 29.1747 30.4569 29.1674 30.4661C28.8328 30.8908 28.5658 31.2296 28.2583 31.4748C27.6187 31.976 26.5802 32.3722 25.4252 32.4814C24.2734 32.5903 23.1373 32.4014 22.2842 31.8874L29.1893 30.4384ZM34.3287 24.5275C34.3283 24.5273 34.3279 24.527 34.3275 24.5268L34.812 23.652M34.3287 24.5275C34.329 24.5277 34.3294 24.5279 34.3297 24.528L34.812 23.652M34.3287 24.5275C33.9291 24.3076 33.5211 24.1103 33.1044 23.9355M34.812 23.652C34.3809 23.4147 33.9401 23.2016 33.4897 23.0127M33.1044 23.9355C33.1048 23.9356 33.1052 23.9358 33.1057 23.936L33.4897 23.0127M33.1044 23.9355C31.181 23.1358 29.0933 22.8216 27.0627 23.0704L33.4897 23.0127M33.1044 23.9355C33.1039 23.9353 33.1034 23.9351 33.1029 23.9349L33.4897 23.0127M39.8185 29.8887C39.8182 29.8884 39.818 29.8881 39.8177 29.8878L40.1111 29.8084L39.8185 29.8887ZM23.1777 24.4012C24.2767 23.712 25.6157 23.2479 27.0625 23.0704L22.284 31.8873C21.7853 31.5865 21.3322 31.1475 20.9652 30.6216C20.1814 29.4973 20.1833 28.3452 20.6431 27.2568C21.12 26.1277 22.0925 25.0884 23.1777 24.4012Z" fill="#F3F2EF" stroke="#4E1700" stroke-width="2"/>
<path d="M8.60251 26.9167C8.51048 26.9458 8.40876 26.9458 8.32157 26.9119L7.97282 26.7666C7.78876 26.6939 7.60469 26.6164 7.42063 26.5438C7.26079 26.476 7.05735 26.4324 7.00891 26.2628C6.98954 26.1805 7.00891 26.1127 7.05251 26.04C7.25595 25.6913 7.45938 25.3474 7.66282 24.9938C7.96313 24.4803 8.26344 23.9766 8.55891 23.4631C8.89798 22.8916 9.22735 22.3249 9.56157 21.7533C9.87157 21.2205 10.1864 20.6877 10.4964 20.1597C10.7241 19.7674 10.9566 19.3702 11.1891 18.9827C11.2327 18.91 11.2811 18.7502 11.3634 18.7017C11.5378 18.6 11.7655 18.6485 11.935 18.7163C12.1239 18.7938 12.3177 18.8664 12.5066 18.9439C12.647 19.002 12.8117 19.0408 12.928 19.1377C13.2089 19.375 12.9764 19.6656 12.8408 19.8981C12.5841 20.3292 12.3274 20.77 12.0706 21.206C11.7461 21.7581 11.4216 22.3152 11.0922 22.8722C10.758 23.4438 10.4238 24.0153 10.0847 24.5869C9.80376 25.0713 9.51798 25.5556 9.23219 26.04C9.13048 26.2144 9.02391 26.3936 8.92219 26.568C8.88344 26.6358 8.84469 26.6988 8.8011 26.7666C8.77688 26.8392 8.69454 26.8925 8.60251 26.9167V26.9167Z" fill="#4E1700"/>
<path d="M10.9953 27.8709C10.9033 27.9 10.8016 27.9 10.7144 27.8661C10.5933 27.8177 10.4819 27.7741 10.3656 27.7208C10.1816 27.6481 9.99752 27.5706 9.81346 27.498C9.65361 27.4302 9.44533 27.3866 9.40174 27.2219C9.38236 27.1347 9.40174 27.0717 9.44533 26.9942C9.64877 26.6455 9.85705 26.3016 10.0556 25.948C10.356 25.4394 10.6563 24.9308 10.9517 24.4173C11.2908 23.8458 11.6202 23.2791 11.9592 22.7075C12.2692 22.1747 12.5841 21.6419 12.8941 21.1139C13.1266 20.7216 13.3542 20.3244 13.5867 19.9369C13.6303 19.8642 13.6788 19.7044 13.7611 19.6608C13.9355 19.5591 14.1583 19.6027 14.3278 19.6705C14.5167 19.748 14.7105 19.8255 14.8994 19.903C15.0447 19.9563 15.2045 19.9998 15.316 20.0919C15.5969 20.3292 15.3692 20.6198 15.2288 20.8523C14.9769 21.2834 14.7153 21.7242 14.4586 22.1602C14.1341 22.7123 13.8095 23.2694 13.485 23.8264C13.1508 24.398 12.8166 24.9695 12.4775 25.5411C12.1917 26.0255 11.9108 26.5098 11.625 26.9942C11.5233 27.1686 11.4216 27.3478 11.315 27.5222C11.2763 27.59 11.2375 27.653 11.1988 27.7208C11.1649 27.7934 11.0874 27.8516 10.9953 27.8709V27.8709Z" fill="#4E1700"/>
<path d="M13.3833 28.8348C13.2912 28.8591 13.1847 28.8639 13.1023 28.8252C12.9861 28.7767 12.8698 28.7331 12.7536 28.6847C12.5695 28.612 12.3855 28.5345 12.2014 28.457C12.0416 28.3941 11.8333 28.3456 11.7897 28.1809C11.7655 28.0937 11.7897 28.0308 11.8333 27.9533C12.0367 27.6045 12.2402 27.2606 12.4436 26.907L13.3445 25.3813L14.3472 23.6666C14.6572 23.1386 14.972 22.6009 15.2869 22.073C15.5145 21.6806 15.747 21.2883 15.9795 20.8959C16.0183 20.8233 16.0716 20.6634 16.1539 20.6198C16.3283 20.5181 16.5511 20.5617 16.7206 20.6295C16.9095 20.707 17.0984 20.7845 17.2922 20.862C17.4327 20.9153 17.6022 20.9589 17.7136 21.0509C17.9897 21.2883 17.762 21.5789 17.6264 21.8114C17.3745 22.2473 17.113 22.6833 16.8562 23.1192C16.5317 23.6763 16.2072 24.2333 15.8827 24.7855C15.5436 25.357 15.2094 25.9286 14.8752 26.5002C14.5894 26.9894 14.3084 27.4689 14.0227 27.9533C13.9209 28.1277 13.8192 28.3069 13.7127 28.4861C13.6787 28.5539 13.64 28.6169 13.5964 28.6847C13.5528 28.7573 13.4753 28.8058 13.3833 28.8348Z" fill="#4E1700"/>
<path d="M19.7286 43.463C19.8255 43.4678 19.9272 43.4436 19.9998 43.3903L20.2905 43.1723L20.7458 42.8333C20.8765 42.7316 21.0655 42.6395 21.0509 42.4652C21.0461 42.3828 21.0025 42.3198 20.9444 42.2617C20.6344 41.9711 20.3244 41.6853 20.0192 41.3947L18.6678 40.1305C18.164 39.6606 17.6603 39.1859 17.1565 38.7161C16.6867 38.2802 16.2169 37.8394 15.747 37.3986C15.4031 37.0789 15.0592 36.7495 14.7056 36.425C14.6426 36.362 14.5409 36.2264 14.4489 36.1974C14.2503 36.1392 14.0469 36.2313 13.9064 36.3427C13.7465 36.4589 13.5867 36.5752 13.4269 36.6963C13.3106 36.7883 13.1653 36.8609 13.0878 36.982C12.8989 37.2727 13.204 37.5003 13.4123 37.6941C13.795 38.0525 14.1825 38.4109 14.5651 38.7742C15.0544 39.2344 15.5484 39.6897 16.0376 40.1498C16.5414 40.6197 17.0451 41.0944 17.5489 41.5642C17.9751 41.9663 18.4014 42.3634 18.8325 42.7606C18.9875 42.9108 19.1425 43.0513 19.2975 43.2014C19.3556 43.2547 19.4186 43.3128 19.4719 43.3661C19.5397 43.4242 19.6317 43.4581 19.7286 43.463V43.463Z" fill="#4E1700"/>
<path d="M15.7422 46.408C15.8391 46.4177 15.9359 46.3934 16.0086 46.3353C16.1103 46.2627 16.2023 46.19 16.2992 46.1222C16.4494 46.0059 16.5995 45.8897 16.7545 45.7783C16.8853 45.6766 17.0694 45.5845 17.0597 45.4102C17.0548 45.3278 17.0161 45.2697 16.9483 45.2067C16.648 44.9161 16.338 44.6303 16.028 44.3445C15.5775 43.9183 15.127 43.5017 14.6766 43.0803C14.1728 42.6105 13.6739 42.1358 13.1653 41.6659C12.6955 41.2252 12.2256 40.7892 11.7558 40.3484C11.407 40.0239 11.0631 39.6994 10.7144 39.3748C10.6466 39.3167 10.5497 39.1763 10.4528 39.1472C10.2542 39.0891 10.0508 39.1859 9.9103 39.2925C9.75046 39.4088 9.59061 39.5298 9.43561 39.6461C9.31452 39.7333 9.17405 39.8108 9.09171 39.9319C8.9028 40.2225 9.2128 40.4453 9.41624 40.6439C9.80374 41.0023 10.1864 41.3656 10.5739 41.7241C11.0631 42.1842 11.5523 42.6395 12.0416 43.0997L13.5576 44.5141C13.9839 44.9161 14.4101 45.3133 14.8364 45.7153C14.9914 45.8606 15.1464 46.0059 15.3062 46.1513C15.3644 46.2045 15.4225 46.2627 15.4806 46.3159C15.5533 46.3692 15.6453 46.4031 15.7422 46.408V46.408Z" fill="#4E1700"/>
<path d="M14.6281 41.6998C14.7008 41.6272 14.7783 41.5642 14.8412 41.5109C15.0495 41.3172 15.3208 41.1767 15.5678 41.0314C15.7809 40.9006 15.9165 40.9006 16.1006 41.075C16.2895 41.2542 16.4833 41.4334 16.6722 41.6078L18.0236 42.872C18.3336 43.1578 18.6387 43.4484 18.9439 43.7342C19.0117 43.7972 19.0553 43.8553 19.0553 43.9425C19.065 44.112 18.8809 44.2089 18.7501 44.3058C18.6 44.422 18.445 44.5334 18.29 44.6497L17.9994 44.8677C17.9315 44.9161 17.8298 44.9403 17.733 44.9355C17.6361 44.9306 17.544 44.9016 17.4811 44.8434C17.423 44.7853 17.3648 44.732 17.3067 44.6739L16.8417 44.238C16.4106 43.8408 15.9892 43.4388 15.5581 43.0367C15.2336 42.7316 14.8897 42.4361 14.5797 42.1261C14.4295 41.9759 14.507 41.8306 14.6281 41.6998V41.6998Z" fill="#4E1700"/>
<path d="M11.0922 38.4545C11.1745 38.3383 11.315 38.2608 11.4313 38.1688C11.5911 38.0525 11.7509 37.9314 11.9108 37.8152C12.0512 37.7086 12.2498 37.6166 12.4533 37.6747C12.5502 37.6989 12.647 37.8394 12.7148 37.9023C13.0636 38.2269 13.4075 38.5514 13.7562 38.8711C14.2261 39.3119 14.6911 39.7527 15.1609 40.1886C15.2336 40.2564 15.253 40.2758 15.253 40.3581C15.2627 40.5664 14.9914 40.7311 14.8219 40.857C14.6087 41.0169 14.1777 41.4286 13.858 41.3802C13.7078 41.3559 13.5916 41.1961 13.4995 41.1089L12.5744 40.2419C12.1869 39.8834 11.8042 39.525 11.4167 39.1617C11.2084 38.9728 10.8984 38.75 11.0922 38.4545V38.4545Z" fill="#4E1700"/>
<path d="M47.2024 38.0089C47.1152 37.9556 47.0183 37.912 46.936 37.8733C46.6744 37.7377 46.3692 37.665 46.0883 37.5827C45.8413 37.5052 45.7105 37.5342 45.5845 37.7474C45.4635 37.9605 45.3327 38.1785 45.2067 38.3916C44.9064 38.9002 44.611 39.4136 44.3058 39.927C44.1024 40.2758 43.8989 40.6197 43.6955 40.9685C43.6567 41.0411 43.6325 41.1089 43.6567 41.1961C43.7003 41.3608 43.9086 41.4092 44.0685 41.4722C44.2525 41.5449 44.4317 41.6224 44.6158 41.6999C44.7272 41.7483 44.8483 41.7919 44.9645 41.8403C45.0517 41.8742 45.1535 41.8742 45.2455 41.85C45.3375 41.821 45.415 41.7725 45.4586 41.6999C45.4974 41.6369 45.5361 41.5691 45.57 41.5013C45.6766 41.3269 45.7783 41.1525 45.88 40.9685C46.1658 40.4841 46.4467 40.0045 46.7325 39.5202C46.9505 39.152 47.1781 38.7839 47.3816 38.411C47.4833 38.222 47.3622 38.101 47.2024 38.0089V38.0089Z" fill="#4E1700"/>
<path d="M49.5758 34.0661C49.4595 33.9692 49.2948 33.9256 49.1544 33.8724C48.9655 33.7949 48.7717 33.7173 48.5828 33.6398C48.4133 33.572 48.1905 33.5284 48.0161 33.6302C47.9337 33.6786 47.8805 33.8336 47.8369 33.9063C47.6044 34.2986 47.3767 34.6909 47.1442 35.0833C46.8342 35.6113 46.5194 36.1489 46.2045 36.6769C46.1561 36.7544 46.1415 36.7786 46.1706 36.8609C46.2336 37.0644 46.5436 37.1564 46.747 37.2388C47.0037 37.3453 47.5511 37.6408 47.8417 37.5197C47.9773 37.4664 48.0403 37.2824 48.1033 37.1758C48.3067 36.827 48.515 36.4831 48.7136 36.1295C48.9703 35.6936 49.227 35.2577 49.4789 34.8217C49.6194 34.5892 49.847 34.3034 49.5758 34.0661Z" fill="#4E1700"/>
<path d="M44.8143 37.0499C44.7272 36.9966 44.6303 36.953 44.5479 36.9142C44.2864 36.7786 43.9861 36.706 43.6954 36.6188C43.4484 36.5461 43.3225 36.5752 43.1965 36.7883C43.0706 37.0014 42.9447 37.2194 42.8187 37.4325C42.5184 37.9411 42.2229 38.4497 41.9178 38.9631L41.3075 40.0094C41.2639 40.082 41.2445 40.1499 41.2687 40.2322C41.3123 40.4017 41.5206 40.4453 41.6805 40.5131L42.2278 40.736C42.344 40.7844 42.4603 40.828 42.5765 40.8813C42.6589 40.9103 42.7654 40.9103 42.8575 40.8861C42.9495 40.8619 43.0319 40.8135 43.0706 40.7408C43.1142 40.673 43.1481 40.61 43.1869 40.5422C43.2886 40.3678 43.3951 40.1886 43.4969 40.0142C43.7826 39.5299 44.0636 39.0455 44.3493 38.5611C44.5673 38.193 44.795 37.8297 44.9984 37.4519C45.0904 37.2678 44.9742 37.1467 44.8143 37.0499V37.0499Z" fill="#4E1700"/>
<path d="M47.183 33.107C47.0715 33.015 46.9117 32.9714 46.7664 32.9133C46.5775 32.8406 46.3837 32.7631 46.1948 32.6808C46.0301 32.613 45.8025 32.5645 45.6233 32.6711C45.5409 32.7195 45.4925 32.8745 45.4489 32.9472C45.2164 33.3347 44.9887 33.7319 44.7562 34.1242C44.4462 34.657 44.1362 35.1899 43.8214 35.7178C43.7729 35.7953 43.7633 35.8195 43.7875 35.9019C43.8504 36.1053 44.1604 36.1925 44.3639 36.2797C44.6158 36.3863 45.1631 36.6817 45.4537 36.5606C45.5942 36.5025 45.6523 36.3233 45.7153 36.2167L46.3256 35.1705C46.5823 34.7345 46.839 34.2986 47.0909 33.8627C47.2362 33.635 47.459 33.3444 47.183 33.107V33.107Z" fill="#4E1700"/>
<path d="M49.5903 38.9631C49.5031 38.9098 49.4062 38.8663 49.3239 38.8275C49.0623 38.6919 48.7572 38.6192 48.4762 38.5369C48.2292 38.4594 48.0984 38.4884 47.9725 38.7016C47.8465 38.9147 47.7206 39.1327 47.5947 39.3506C47.2944 39.8641 46.9989 40.3678 46.6937 40.8813C46.4903 41.23 46.2869 41.5739 46.0786 41.9227C46.0398 41.9953 46.0205 42.068 46.0398 42.1503C46.0834 42.315 46.2917 42.3634 46.4515 42.4313C46.6356 42.5039 46.8197 42.5814 46.9989 42.6541C47.12 42.7025 47.2314 42.7461 47.3476 42.7945C47.4348 42.8284 47.5365 42.8284 47.6286 42.8042C47.7206 42.7752 47.7981 42.7267 47.8417 42.6541C47.8804 42.5911 47.9192 42.5233 47.958 42.4555C48.0597 42.2811 48.1662 42.1067 48.2679 41.9227C48.5489 41.4431 48.8347 40.9588 49.1204 40.4695C49.3384 40.1014 49.5709 39.7381 49.7695 39.3603C49.8712 39.1763 49.7501 39.0552 49.5903 38.9631V38.9631Z" fill="#4E1700"/>
<path d="M51.9589 35.0252C51.8475 34.9283 51.6779 34.8895 51.5423 34.8314C51.3486 34.7539 51.1597 34.6764 50.9707 34.5989C50.8012 34.5311 50.5784 34.4875 50.404 34.5844C50.3217 34.6328 50.2732 34.7927 50.2296 34.8653C49.9971 35.2528 49.7695 35.65 49.537 36.0375C49.227 36.5655 48.917 37.1031 48.6021 37.6311C48.5537 37.7086 48.544 37.7377 48.5682 37.8152C48.6264 38.0235 48.9412 38.1106 49.1446 38.1978C49.3965 38.2995 49.9439 38.5999 50.2393 38.4739C50.375 38.4158 50.4379 38.2366 50.4961 38.13C50.6995 37.7813 50.9029 37.4374 51.1112 37.0838C51.3679 36.6527 51.6246 36.2119 51.8814 35.776C52.0121 35.5483 52.2398 35.2577 51.9589 35.0252V35.0252Z" fill="#4E1700"/>
<path d="M46.5485 23.6859C46.6502 23.6908 46.7471 23.6666 46.8198 23.6133L47.1104 23.3953C47.2654 23.2839 47.4156 23.1677 47.5657 23.0514C47.7013 22.9545 47.8854 22.8577 47.8757 22.6881C47.8709 22.6009 47.8273 22.5428 47.7643 22.4799C47.4543 22.1892 47.1491 21.9083 46.8391 21.6177C46.3935 21.1963 45.9382 20.7749 45.4877 20.3534C44.984 19.8836 44.4802 19.4089 43.9765 18.9391C43.5067 18.5031 43.0368 18.0624 42.567 17.6216C42.2182 17.297 41.8743 16.9725 41.5256 16.6528C41.4577 16.5899 41.3657 16.4494 41.2688 16.4252C41.0702 16.367 40.8668 16.4591 40.7263 16.5656C40.5665 16.6867 40.4067 16.803 40.2468 16.9192C40.1306 17.0064 39.9852 17.0888 39.9077 17.205C39.7188 17.4956 40.0288 17.7281 40.2323 17.917C40.6198 18.2803 41.0024 18.6388 41.3899 18.9972C41.8792 19.4622 42.3684 19.9175 42.8624 20.3777C43.3662 20.8524 43.8748 21.3222 44.3737 21.792C44.8048 22.1892 45.2262 22.5913 45.6573 22.9884C45.8171 23.1338 45.9673 23.2791 46.1271 23.4244C46.1852 23.4777 46.2434 23.5358 46.3015 23.5891C46.3645 23.6472 46.4565 23.6811 46.5485 23.6859Z" fill="#4E1700"/>
<path d="M42.2763 21.08C42.2085 21.1478 42.1261 21.2156 42.0632 21.2738C41.8501 21.4627 41.5837 21.6031 41.3415 21.7533C41.1283 21.8841 40.9927 21.8841 40.8038 21.7049C40.6149 21.5305 40.4212 21.3513 40.2322 21.172C39.7818 20.7506 39.3313 20.3292 38.8808 19.9127C38.5708 19.6269 38.2657 19.3363 37.9605 19.0456C37.8976 18.9827 37.854 18.9245 37.8491 18.8374C37.8394 18.6678 38.0235 18.5709 38.1543 18.4741C38.3044 18.3627 38.4594 18.2464 38.6144 18.1302C38.7065 18.0624 38.8033 17.9849 38.9051 17.917C38.9729 17.8638 39.0746 17.8395 39.1715 17.8444C39.2683 17.8541 39.3604 17.8831 39.4233 17.9364C39.4815 17.9849 39.5444 18.0478 39.5977 18.1011C39.7527 18.2464 39.9077 18.3917 40.0676 18.537C40.4938 18.9391 40.9201 19.3363 41.3463 19.7383C41.6757 20.0434 42.0147 20.3389 42.3247 20.6538C42.4749 20.8088 42.3974 20.9541 42.2763 21.08V21.08Z" fill="#4E1700"/>
<path d="M45.8123 24.3253C45.7348 24.4416 45.5895 24.5191 45.4732 24.6111C45.3134 24.7274 45.1535 24.8484 44.9937 24.9647C44.8532 25.0713 44.6498 25.1681 44.4512 25.11C44.3543 25.0809 44.2574 24.9405 44.1945 24.8824C43.8457 24.553 43.497 24.2333 43.1531 23.9088C42.6832 23.468 42.2134 23.032 41.7435 22.5913C41.6757 22.5283 41.6515 22.5041 41.6515 22.4217C41.6466 22.2086 41.9179 22.0488 42.0826 21.918C42.2957 21.763 42.7268 21.3464 43.0465 21.3997C43.1967 21.4239 43.3129 21.5838 43.4098 21.6709L44.3301 22.5331C44.7176 22.8916 45.1051 23.2549 45.4877 23.6133C45.696 23.807 46.006 24.0347 45.8123 24.3253Z" fill="#4E1700"/>
<path d="M46.2627 18.135C46.1949 18.2028 46.1125 18.2706 46.0496 18.3288C45.8364 18.5177 45.57 18.6533 45.323 18.8034C45.1099 18.9342 44.9743 18.9342 44.7902 18.7599C44.6013 18.5806 44.4075 18.4063 44.2186 18.227L42.8672 16.9628C42.5621 16.6722 42.2521 16.3913 41.9469 16.1006C41.8839 16.0377 41.8404 15.9795 41.8355 15.8924C41.8258 15.7228 42.0099 15.6259 42.1407 15.5291C42.2908 15.4128 42.4458 15.3014 42.6008 15.1852L42.8914 14.9672C42.9641 14.9188 43.061 14.8945 43.1579 14.8994C43.2547 14.9042 43.3468 14.9333 43.4146 14.9866C43.4727 15.0399 43.5308 15.098 43.5889 15.1561C43.7439 15.3014 43.8989 15.4467 44.0588 15.592C44.485 15.9892 44.9113 16.3913 45.3424 16.7884C45.6669 17.0984 46.0108 17.3939 46.3208 17.7088C46.4613 17.8638 46.3886 18.0091 46.2627 18.135V18.135Z" fill="#4E1700"/>
<path d="M49.8035 21.3803C49.7212 21.4966 49.5807 21.5741 49.4596 21.6612C49.2998 21.7823 49.1399 21.8986 48.9849 22.0197C48.8444 22.1262 48.6458 22.2183 48.4424 22.1602C48.3504 22.1359 48.2487 21.9955 48.1808 21.9325C47.8369 21.608 47.4882 21.2834 47.1394 20.9637C46.6696 20.523 46.1998 20.0822 45.7299 19.6462C45.6573 19.5784 45.6379 19.5591 45.6379 19.4767C45.633 19.2636 45.9043 19.1037 46.069 18.973C46.2821 18.818 46.7132 18.4014 47.0329 18.4547C47.183 18.4789 47.2993 18.6387 47.3913 18.7259C47.6965 19.0117 48.0065 19.2975 48.3116 19.5881C48.6991 19.9466 49.0818 20.305 49.4644 20.6683C49.6824 20.862 49.9924 21.0897 49.8035 21.3803V21.3803Z" fill="#4E1700"/>
<path d="M48.9025 7.90015L58.8371 40.3291C52.143 47.2169 46.0205 49.3336 38.2269 49.3336C35.122 49.3336 31.7508 48.9994 27.9727 48.4956C26.5583 48.3067 25.1972 48.2244 23.8942 48.2244C13.0345 48.2244 6.42283 54.1047 6.42283 54.1047L3.16299 21.6709C3.16299 21.6709 7.1397 13.8677 20.4019 13.8677C20.6877 13.8677 20.9783 13.8725 21.2738 13.8773C25.4685 13.9839 29.0625 14.2503 32.2981 14.2503C38.6386 14.2552 43.5841 13.2234 48.9025 7.90015V7.90015ZM48.9025 5.02296C48.1469 5.02296 47.4106 5.31843 46.8681 5.87062C42.2375 10.5012 38.1785 11.378 32.303 11.378C30.5205 11.378 28.5636 11.2908 26.4905 11.1987C24.8581 11.1261 23.1725 11.0486 21.3464 11.005C21.0267 10.9953 20.7119 10.9953 20.4067 10.9953C5.55095 10.9953 0.794391 19.9805 0.600641 20.3631C0.350386 20.8547 0.246172 21.4077 0.300329 21.9567L3.55533 54.3856C3.60844 54.9133 3.80626 55.416 4.12696 55.8384C4.44766 56.2607 4.87878 56.5863 5.37277 56.7792C5.86677 56.9721 6.40444 57.0248 6.92648 56.9315C7.44852 56.8382 7.93466 56.6025 8.33127 56.2505C8.3797 56.2069 14.352 51.0967 23.8942 51.0967C25.1149 51.0967 26.3597 51.1839 27.59 51.3486C32.0802 51.9444 35.3594 52.2108 38.2221 52.2108C47.3913 52.2108 54.1725 49.2561 60.8956 42.3392C61.2557 41.9691 61.5096 41.509 61.6306 41.007C61.7516 40.505 61.7353 39.9798 61.5835 39.4862L51.6489 7.05734C51.5028 6.58228 51.2366 6.15299 50.876 5.81101C50.5153 5.46903 50.0725 5.22595 49.5903 5.10531C49.3651 5.05112 49.1342 5.02348 48.9025 5.02296V5.02296Z" fill="#4E1700"/>
</svg>
