<svg width="51" height="64" viewBox="0 0 51 64" fill="none" xmlns="http://www.w3.org/2000/svg">
<circle cx="26.5" cy="50.5" r="5.5" stroke="#4E1700" stroke-width="2"/>
<path fill-rule="evenodd" clip-rule="evenodd" d="M26 7C26.5523 7 27 7.44772 27 8L27 35C27 35.5523 26.5523 36 26 36C25.4477 36 25 35.5523 25 35L25 8C25 7.44772 25.4477 7 26 7ZM21 7C21.5523 7 22 7.44772 22 8L22 32C22 32.5523 21.5523 33 21 33C20.4477 33 20 32.5523 20 32L20 8C20 7.44772 20.4477 7 21 7ZM16 7C16.5523 7 17 7.44772 17 8L17 30C17 30.5523 16.5523 31 16 31C15.4477 31 15 30.5523 15 30L15 8C15 7.44772 15.4477 7 16 7ZM31 7C31.5523 7 32 7.44772 32 8L32 32C32 32.5523 31.5523 33 31 33C30.4477 33 30 32.5523 30 32L30 8C30 7.44772 30.4477 7 31 7ZM36 7C36.5523 7 37 7.44772 37 8L37 30C37 30.5523 36.5523 31 36 31C35.4477 31 35 30.5523 35 30L35 8C35 7.44772 35.4477 7 36 7ZM41 7C41.5523 7 42 7.44772 42 8L42 28C42 28.5523 41.5523 29 41 29C40.4477 29 40 28.5523 40 28L40 8C40 7.44772 40.4477 7 41 7ZM11 7C11.5523 7 12 7.44772 12 8L12 28C12 28.5523 11.5523 29 11 29C10.4477 29 10 28.5523 10 28L10 8C10 7.44772 10.4477 7 11 7Z" fill="#4E1700"/>
<rect x="7" y="13" width="37" height="5" rx="2" fill="#F3F2EF" stroke="#4E1700" stroke-width="2"/>
<rect x="1.5" y="1.5" width="48" height="61" rx="1.5" stroke="#4E1700" stroke-width="3"/>
</svg>
