<svg width="60" height="57" viewBox="0 0 60 57" fill="none" xmlns="http://www.w3.org/2000/svg">
<path d="M7.91667 8.14493H3.69203C2.52543 8.14493 1.57971 9.057 1.57971 10.1821V52.9628C1.57971 54.0879 2.52543 55 3.69203 55H7.91667C9.08327 55 10.029 54.0879 10.029 52.9628V10.1821C10.029 9.057 9.08327 8.14493 7.91667 8.14493Z" stroke="#4E1700" stroke-width="3" stroke-linejoin="round"/>
<path d="M11.5652 24.2754H28.4638" stroke="#4E1700" stroke-width="3" stroke-linecap="round" stroke-linejoin="round"/>
<path d="M11.5652 46.5507H28.4638" stroke="#4E1700" stroke-width="3" stroke-linecap="round" stroke-linejoin="round"/>
<path d="M26.3515 16.5942H13.6776C12.511 16.5942 11.5652 17.4992 11.5652 18.6156V52.9786C11.5652 54.095 12.511 55 13.6776 55H26.3515C27.5181 55 28.4638 54.095 28.4638 52.9786V18.6156C28.4638 17.4992 27.5181 16.5942 26.3515 16.5942Z" stroke="#4E1700" stroke-width="3" stroke-linejoin="round"/>
<path d="M40.2415 2H32.0483C30.9171 2 30 2.91265 30 4.03846V52.9615C30 54.0873 30.9171 55 32.0483 55H40.2415C41.3728 55 42.2899 54.0873 42.2899 52.9615V4.03846C42.2899 2.91265 41.3728 2 40.2415 2Z" stroke="#4E1700" stroke-width="3" stroke-linejoin="round"/>
<path d="M51.1811 8.15867L46.0981 8.6998C44.699 8.84877 43.6849 10.173 43.8422 11.641L48.2357 52.5876C48.3942 54.0557 49.6663 55.1342 51.0653 54.9865L56.1483 54.4453C57.5474 54.2964 58.5615 52.9722 58.4042 51.5041L54.017 10.5638C53.8522 9.08942 52.5802 8.0097 51.1811 8.15867Z" stroke="#4E1700" stroke-width="3" stroke-linejoin="round"/>
</svg>
