<svg width="50" height="54" viewBox="0 0 50 54" fill="none" xmlns="http://www.w3.org/2000/svg">
<path d="M4.25 25.0938C4.25 13.5826 13.5826 4.25 25.0938 4.25C36.6049 4.25 45.9375 13.5826 45.9375 25.0938V29.625H38.6875C38.2068 29.625 37.7458 29.816 37.4059 30.1559C37.066 30.4958 36.875 30.9568 36.875 31.4375V49.5625C36.875 50.0432 37.066 50.5042 37.4059 50.8441C37.7458 51.184 38.2068 51.375 38.6875 51.375H41.4062C43.5694 51.375 45.644 50.5157 47.1736 48.9861C48.7032 47.4565 49.5625 45.3819 49.5625 43.2188V25.0938C49.5625 11.5798 38.6077 0.625 25.0938 0.625C11.5798 0.625 0.625 11.5798 0.625 25.0938V43.2188C0.625 45.3819 1.48432 47.4565 3.01391 48.9861C4.5435 50.5157 6.61808 51.375 8.78125 51.375H11.5C11.9807 51.375 12.4417 51.184 12.7816 50.8441C13.1215 50.5042 13.3125 50.0432 13.3125 49.5625V31.4375C13.3125 30.9568 13.1215 30.4958 12.7816 30.1559C12.4417 29.816 11.9807 29.625 11.5 29.625H4.25V25.0938ZM40.5 33.25H45.9375V43.2188C45.9375 44.4205 45.4601 45.5731 44.6103 46.4228C43.7606 47.2726 42.608 47.75 41.4062 47.75H40.5V33.25ZM4.25 33.25H9.6875V47.75H8.78125C7.57949 47.75 6.42695 47.2726 5.57717 46.4228C4.7274 45.5731 4.25 44.4205 4.25 43.2188V33.25ZM26.9062 27.8125C26.9062 27.3318 26.7153 26.8708 26.3754 26.5309C26.0355 26.191 25.5745 26 25.0938 26C24.613 26 24.152 26.191 23.8121 26.5309C23.4722 26.8708 23.2812 27.3318 23.2812 27.8125V51.375C23.2812 51.8557 23.4722 52.3167 23.8121 52.6566C24.152 52.9965 24.613 53.1875 25.0938 53.1875C25.5745 53.1875 26.0355 52.9965 26.3754 52.6566C26.7153 52.3167 26.9062 51.8557 26.9062 51.375V27.8125ZM18.75 33.25C19.2307 33.25 19.6917 33.441 20.0316 33.7809C20.3715 34.1208 20.5625 34.5818 20.5625 35.0625V44.125C20.5625 44.6057 20.3715 45.0667 20.0316 45.4066C19.6917 45.7465 19.2307 45.9375 18.75 45.9375C18.2693 45.9375 17.8083 45.7465 17.4684 45.4066C17.1285 45.0667 16.9375 44.6057 16.9375 44.125V35.0625C16.9375 34.5818 17.1285 34.1208 17.4684 33.7809C17.8083 33.441 18.2693 33.25 18.75 33.25ZM33.25 35.0625C33.25 34.5818 33.059 34.1208 32.7191 33.7809C32.3792 33.441 31.9182 33.25 31.4375 33.25C30.9568 33.25 30.4958 33.441 30.1559 33.7809C29.816 34.1208 29.625 34.5818 29.625 35.0625V44.125C29.625 44.6057 29.816 45.0667 30.1559 45.4066C30.4958 45.7465 30.9568 45.9375 31.4375 45.9375C31.9182 45.9375 32.3792 45.7465 32.7191 45.4066C33.059 45.0667 33.25 44.6057 33.25 44.125V35.0625Z" fill="#4E1700"/>
</svg>
