<svg width="66" height="50" viewBox="0 0 66 50" fill="none" xmlns="http://www.w3.org/2000/svg">
<path d="M35.0872 0.230804L33.2062 3.65456L19.7546 28.1076L15.8029 24.1558L14.4416 26.4204L2.35537 46.5649L0.48468 49.6875H65.0079L63.7746 46.8103L57.5871 32.3728L56.3867 29.574L52.1214 33.8392L36.8527 3.71643L35.0893 0.230804H35.0872ZM34.9367 9.06243L41.2067 21.4292L39.6103 22.7987L34.9078 18.7706L30.2074 22.7987L28.2892 21.1507L34.9367 9.06243ZM34.9099 24.2012L39.6124 28.2292L43.1227 25.218L49.7227 38.2427L51.0056 40.7857L54.9904 36.801L58.7441 45.5625H7.76737C10.7167 40.6434 13.6702 35.7244 16.6217 30.8074L20.7219 34.9076L22.0461 32.5027C23.4506 29.9494 24.8572 27.3981 26.2597 24.8447L30.2074 28.2272L34.9099 24.2012Z" fill="#4E1700"/>
</svg>
