<?xml version="1.0" standalone="no"?>
<!DOCTYPE svg PUBLIC "-//W3C//DTD SVG 20010904//EN"
 "http://www.w3.org/TR/2001/REC-SVG-20010904/DTD/svg10.dtd">
<svg version="1.0" xmlns="http://www.w3.org/2000/svg"
 width="902.000000pt" height="902.000000pt" viewBox="0 0 902.000000 902.000000"
 preserveAspectRatio="xMidYMid meet">
<metadata>
Created by potrace 1.14, written by Peter Selinger 2001-2017
</metadata>
<g transform="translate(0.000000,902.000000) scale(0.100000,-0.100000)"
fill="#000000" stroke="none">
<path d="M4279 8759 c-120 -24 -199 -68 -294 -164 -81 -81 -138 -173 -152
-247 -3 -18 -9 -37 -13 -43 -10 -13 -7 -241 3 -251 4 -4 7 -17 7 -28 0 -12 15
-52 34 -90 l33 -69 -1313 -1314 -1313 -1315 -48 7 c-27 5 -55 10 -63 12 -25 7
-132 6 -175 -1 -82 -14 -198 -62 -244 -101 -70 -58 -101 -89 -127 -127 -16
-24 -31 -45 -34 -48 -8 -7 -51 -108 -62 -145 -7 -26 -21 -133 -20 -160 3 -114
56 -267 113 -331 11 -11 19 -24 20 -30 0 -12 109 -103 158 -132 40 -23 136
-60 181 -69 14 -3 53 -6 87 -7 35 -1 67 -6 71 -11 22 -24 172 -247 172 -255 0
-4 4 -10 8 -12 7 -2 61 -78 97 -136 6 -8 15 -23 22 -31 40 -53 203 -295 203
-302 0 -5 5 -9 10 -9 6 0 10 -6 10 -14 0 -8 4 -16 8 -18 7 -3 132 -178 172
-243 8 -13 32 -47 52 -77 20 -29 55 -80 77 -113 23 -33 44 -64 49 -70 4 -5 48
-68 97 -140 49 -71 92 -132 97 -133 4 -2 8 -8 8 -14 0 -5 26 -46 58 -91 32
-45 67 -97 77 -114 11 -18 23 -33 27 -33 4 0 8 -6 8 -13 0 -7 11 -24 25 -39
14 -15 25 -30 25 -34 0 -5 96 -146 122 -179 5 -5 38 -55 75 -110 37 -55 70
-101 75 -103 4 -2 8 -9 8 -15 0 -7 14 -28 30 -47 16 -19 30 -40 30 -47 0 -6 3
-13 8 -15 7 -3 20 -20 134 -188 36 -52 99 -144 142 -205 42 -60 79 -117 83
-125 4 -8 10 -17 13 -20 14 -10 60 -90 53 -91 -5 0 -91 -2 -193 -3 -103 -2
-212 -9 -245 -16 -33 -7 -66 -13 -72 -13 -7 0 -13 -4 -13 -9 0 -5 -4 -7 -9 -3
-9 5 -20 1 -86 -26 -107 -44 -131 -54 -140 -61 -5 -5 -38 -26 -71 -47 -147
-93 -271 -231 -360 -400 -23 -45 -40 -81 -38 -81 3 0 -1 -10 -7 -23 -21 -39
-58 -197 -65 -276 -4 -42 -7 -80 -8 -86 -1 -7 585 -10 1739 -10 l1740 0 -1 35
c-1 48 -12 140 -19 170 -4 14 -8 34 -9 45 -2 11 -6 29 -10 40 -5 11 -12 34
-18 50 -35 101 -115 252 -140 263 -5 2 -8 10 -8 17 0 21 -167 187 -240 237
-117 83 -264 146 -395 172 -16 3 -41 9 -55 12 -14 3 -110 7 -215 9 -104 1
-194 4 -200 5 -5 1 -12 1 -15 0 -15 -6 -217 -4 -213 2 2 5 0 8 -6 8 -6 0 -27
26 -47 58 -20 31 -41 59 -45 60 -5 2 -9 8 -9 12 0 5 -14 29 -30 52 -17 24 -58
84 -92 133 -34 50 -64 92 -67 95 -3 3 -10 13 -16 22 -15 27 -213 316 -257 375
-21 29 -38 56 -38 60 -1 4 -14 24 -30 43 -17 19 -30 40 -30 46 0 7 -4 14 -8
16 -7 2 -72 92 -107 146 -5 9 -31 46 -58 84 -26 37 -47 72 -47 77 0 5 -4 11
-9 13 -4 2 -41 53 -82 113 -40 61 -76 112 -79 115 -3 3 -43 61 -90 130 -46 69
-88 127 -92 128 -4 2 -8 10 -8 18 0 8 -3 14 -8 14 -4 0 -12 9 -17 20 -6 11
-44 68 -85 127 -138 200 -191 278 -266 388 -42 61 -99 144 -127 185 -29 41
-97 140 -151 220 -55 80 -104 148 -110 152 -6 4 -7 8 -2 8 5 0 0 10 -11 23
-11 12 -40 51 -63 87 -24 36 -47 67 -52 68 -4 2 -8 7 -8 12 0 9 -109 171 -121
180 -3 3 8 35 26 71 67 137 79 273 40 431 -6 22 116 147 1303 1336 l1309 1311
189 -190 c104 -104 190 -191 191 -193 2 -1 -7 -26 -18 -55 -17 -45 -34 -110
-55 -206 -3 -11 -7 -40 -9 -65 -3 -25 -8 -58 -11 -73 -9 -44 -4 -342 6 -342 0
0 3 -22 4 -50 4 -56 29 -175 46 -220 6 -17 11 -32 11 -35 -3 -18 99 -280 119
-305 4 -5 22 -37 40 -70 67 -121 176 -270 271 -368 l36 -37 461 460 c253 253
464 460 469 460 4 0 -37 -45 -92 -100 l-100 -101 25 -20 c47 -38 138 -96 172
-108 18 -7 42 -17 53 -22 101 -44 293 -36 405 18 19 10 37 17 40 18 11 1 63
42 102 80 81 80 131 180 146 294 10 73 5 190 -9 216 -3 6 -12 30 -19 55 -16
50 -87 180 -99 180 -4 0 -14 11 -21 25 -7 14 -18 25 -24 25 -6 0 -135 -124
-286 -275 -151 -151 -279 -275 -283 -275 -4 0 287 295 646 655 l654 655 -51
47 c-29 27 -69 62 -90 78 -21 17 -48 38 -60 47 -37 30 -40 33 -96 68 -83 53
-87 56 -205 114 -171 85 -346 142 -495 161 -29 4 -62 9 -74 12 -30 8 -336 11
-336 4 0 -3 -16 -6 -37 -5 -53 2 -288 -46 -318 -65 -5 -3 -25 -11 -44 -18 -41
-14 9 -58 -419 367 -303 302 -333 328 -406 365 -44 22 -82 40 -85 40 -3 1 -30
7 -59 14 -78 20 -159 20 -253 0z"/>
</g>
</svg>
